STARTFONT 2.1
COMMENT
COMMENT Converted from OpenType font "xuong_regular.otf" by "otf2bdf 3.0".
COMMENT
FONT -FreeType-Xuong-Bold-R-Normal--22-160-100-100-P-110-ISO10646-1
SIZE 16 100 100
FONTBOUNDINGBOX 24 28 -2 -4
STARTPROPERTIES 19
FOUNDRY "FreeType"
FAMILY_NAME "Xuong"
WEIGHT_NAME "Bold"
SLANT "R"
SETWIDTH_NAME "Normal"
ADD_STYLE_NAME ""
PIXEL_SIZE 22
POINT_SIZE 160
RESOLUTION_X 100
RESOLUTION_Y 100
SPACING "P"
AVERAGE_WIDTH 110
CHARSET_REGISTRY "ISO10646"
CHARSET_ENCODING "1"
FONT_ASCENT 19
FONT_DESCENT 3
COPYRIGHT "-FreeType-Xuong-Bold-R-Normal--22-160-100-100-P-110-ISO10646-1"
_OTF_FONTFILE "xuong_regular.otf"
_OTF_PSNAME "Xuong"
ENDPROPERTIES
CHARS 445
STARTCHAR 0000
ENCODING 0
SWIDTH 0 0
DWIDTH 0 0
BBX 0 0 0 0
BITMAP
ENDCHAR
STARTCHAR 000D
ENCODING 13
SWIDTH 225 0
DWIDTH 5 0
BBX 0 0 0 0
BITMAP
ENDCHAR
STARTCHAR 0020
ENCODING 32
SWIDTH 225 0
DWIDTH 5 0
BBX 0 0 0 0
BITMAP
ENDCHAR
STARTCHAR 0021
ENCODING 33
SWIDTH 135 0
DWIDTH 3 0
BBX 3 16 0 0
BITMAP
60
E0
60
60
60
60
60
60
60
60
60
60
00
60
60
60
ENDCHAR
STARTCHAR 0022
ENCODING 34
SWIDTH 225 0
DWIDTH 5 0
BBX 6 6 0 10
BITMAP
FC
FC
D8
D8
48
48
ENDCHAR
STARTCHAR 0023
ENCODING 35
SWIDTH 720 0
DWIDTH 16 0
BBX 16 16 0 0
BITMAP
019C
0398
0318
0318
0338
7FFF
7FFF
0630
0670
FFFE
FFFE
FFFC
1CE0
18C0
18C0
19C0
ENDCHAR
STARTCHAR 0024
ENCODING 36
SWIDTH 540 0
DWIDTH 12 0
BBX 10 20 1 -2
BITMAP
0C00
0C00
FF00
FF80
FFC0
FFC0
F1C0
F800
7C00
3E00
1F00
0F80
07C0
03C0
E1C0
FFC0
7FC0
7FC0
0C00
0C00
ENDCHAR
STARTCHAR 0025
ENCODING 37
SWIDTH 585 0
DWIDTH 13 0
BBX 12 16 1 0
BITMAP
F8E0
F8C0
D9C0
D980
FB80
FB00
0700
0600
0600
0C00
0C00
1FF0
1BF0
3B30
33F0
71F0
ENDCHAR
STARTCHAR 0026
ENCODING 38
SWIDTH 675 0
DWIDTH 15 0
BBX 14 16 1 0
BITMAP
1F80
3FC0
7FE0
7FE0
70E0
71E0
7FC0
FFC0
F1C8
E1DC
E1FC
E0F8
F3F0
FFF8
7FFC
7F1C
ENDCHAR
STARTCHAR 0027
ENCODING 39
SWIDTH 90 0
DWIDTH 2 0
BBX 3 6 0 10
BITMAP
E0
E0
C0
C0
40
40
ENDCHAR
STARTCHAR 0028
ENCODING 40
SWIDTH 180 0
DWIDTH 4 0
BBX 4 17 1 -1
BITMAP
70
60
E0
C0
C0
C0
C0
C0
C0
C0
C0
C0
C0
C0
E0
60
30
ENDCHAR
STARTCHAR 0029
ENCODING 41
SWIDTH 180 0
DWIDTH 4 0
BBX 4 17 0 -1
BITMAP
E0
60
70
30
30
30
30
30
30
30
30
30
30
30
60
E0
C0
ENDCHAR
STARTCHAR 002A
ENCODING 42
SWIDTH 360 0
DWIDTH 8 0
BBX 7 8 1 8
BITMAP
38
38
FE
FE
7C
FE
FE
38
ENDCHAR
STARTCHAR 002B
ENCODING 43
SWIDTH 405 0
DWIDTH 9 0
BBX 9 9 0 3
BITMAP
0C00
0C00
0C00
FF80
FF80
0C00
0C00
0C00
0C00
ENDCHAR
STARTCHAR 002C
ENCODING 44
SWIDTH 180 0
DWIDTH 4 0
BBX 3 5 0 -2
BITMAP
60
60
60
E0
C0
ENDCHAR
STARTCHAR 002D
ENCODING 45
SWIDTH 405 0
DWIDTH 9 0
BBX 9 2 0 8
BITMAP
FF80
FF80
ENDCHAR
STARTCHAR 002E
ENCODING 46
SWIDTH 135 0
DWIDTH 3 0
BBX 3 3 0 0
BITMAP
E0
E0
E0
ENDCHAR
STARTCHAR 002F
ENCODING 47
SWIDTH 225 0
DWIDTH 5 0
BBX 6 18 0 -1
BITMAP
0C
0C
0C
1C
18
18
38
38
30
30
70
60
60
60
E0
C0
C0
C0
ENDCHAR
STARTCHAR 0030
ENCODING 48
SWIDTH 540 0
DWIDTH 12 0
BBX 11 16 1 0
BITMAP
3F80
7FC0
FFE0
FFE0
E1E0
E0E0
E0E0
E0E0
E0E0
E0E0
E0E0
E0E0
F1E0
FFE0
7FC0
7FC0
ENDCHAR
STARTCHAR 0031
ENCODING 49
SWIDTH 360 0
DWIDTH 8 0
BBX 7 16 1 0
BITMAP
0E
3E
7E
FE
FE
EE
CE
0E
0E
0E
0E
0E
0E
0E
0E
0E
ENDCHAR
STARTCHAR 0032
ENCODING 50
SWIDTH 540 0
DWIDTH 12 0
BBX 10 16 1 0
BITMAP
3FC0
7FC0
FFC0
FFC0
F1C0
01C0
03C0
0780
0F00
1F00
3E00
7C00
F800
FFC0
FFC0
FFC0
ENDCHAR
STARTCHAR 0033
ENCODING 51
SWIDTH 495 0
DWIDTH 11 0
BBX 10 16 1 0
BITMAP
FF80
FFC0
7FC0
7FC0
03C0
03C0
3FC0
3FC0
3FC0
3FC0
03C0
03C0
03C0
7FC0
FFC0
FFC0
ENDCHAR
STARTCHAR 0034
ENCODING 52
SWIDTH 540 0
DWIDTH 12 0
BBX 11 16 1 0
BITMAP
0780
0F80
0F80
1F80
3F80
3F80
7B80
7B80
F380
F380
FFE0
FFE0
FFE0
0380
0380
0380
ENDCHAR
STARTCHAR 0035
ENCODING 53
SWIDTH 495 0
DWIDTH 11 0
BBX 10 16 1 0
BITMAP
FFC0
FFC0
FF80
FF00
E000
E000
FF80
FFC0
FFC0
FFC0
03C0
03C0
03C0
7FC0
FFC0
FF80
ENDCHAR
STARTCHAR 0036
ENCODING 54
SWIDTH 540 0
DWIDTH 12 0
BBX 10 16 1 0
BITMAP
FF00
FF80
FFC0
FFC0
E1C0
E000
E000
FFC0
FFC0
FFC0
F3C0
E1C0
F3C0
FFC0
FFC0
FFC0
ENDCHAR
STARTCHAR 0037
ENCODING 55
SWIDTH 450 0
DWIDTH 10 0
BBX 10 16 0 0
BITMAP
FF80
FFC0
7FC0
3FC0
03C0
0780
0780
0780
0F00
0F00
0F00
1E00
1E00
1E00
1C00
1C00
ENDCHAR
STARTCHAR 0038
ENCODING 56
SWIDTH 540 0
DWIDTH 12 0
BBX 11 16 1 0
BITMAP
3F80
7FC0
FFE0
FFE0
F1E0
E0E0
F1E0
FFE0
7FC0
F1E0
E0E0
E0E0
F1E0
FFE0
7FC0
7FC0
ENDCHAR
STARTCHAR 0039
ENCODING 57
SWIDTH 540 0
DWIDTH 12 0
BBX 10 16 1 0
BITMAP
FFC0
FFC0
FFC0
FFC0
E1C0
E1C0
FFC0
FFC0
FFC0
01C0
01C0
E1C0
F1C0
FFC0
7FC0
7FC0
ENDCHAR
STARTCHAR 003A
ENCODING 58
SWIDTH 135 0
DWIDTH 3 0
BBX 3 11 0 0
BITMAP
E0
E0
E0
00
00
00
00
00
E0
E0
E0
ENDCHAR
STARTCHAR 003B
ENCODING 59
SWIDTH 135 0
DWIDTH 3 0
BBX 3 13 0 -2
BITMAP
60
60
60
00
00
00
00
00
60
60
60
E0
C0
ENDCHAR
STARTCHAR 003C
ENCODING 60
SWIDTH 360 0
DWIDTH 8 0
BBX 8 11 0 4
BITMAP
03
0F
3F
FC
F0
E0
F0
7C
1F
07
01
ENDCHAR
STARTCHAR 003D
ENCODING 61
SWIDTH 405 0
DWIDTH 9 0
BBX 9 5 0 5
BITMAP
FF80
FF80
0000
FF80
FF80
ENDCHAR
STARTCHAR 003E
ENCODING 62
SWIDTH 360 0
DWIDTH 8 0
BBX 8 12 0 3
BITMAP
80
E0
F8
7E
1F
07
03
0F
3F
FC
F0
C0
ENDCHAR
STARTCHAR 003F
ENCODING 63
SWIDTH 495 0
DWIDTH 11 0
BBX 10 16 1 0
BITMAP
3FC0
7FC0
FFC0
FFC0
E3C0
03C0
0780
0700
0F00
0E00
0E00
0E00
0000
0E00
0E00
0E00
ENDCHAR
STARTCHAR 0040
ENCODING 64
SWIDTH 765 0
DWIDTH 17 0
BBX 16 18 1 -2
BITMAP
FFFE
FFFF
FFFF
C007
C3C7
C7C7
C667
C667
C667
C667
CE67
CFF7
CDFF
CC3F
CC3F
C000
FFC0
FFC0
ENDCHAR
STARTCHAR 0041
ENCODING 65
SWIDTH 585 0
DWIDTH 13 0
BBX 13 16 0 0
BITMAP
0F80
1FC0
1FC0
1FC0
18C0
38E0
38E0
38E0
38E0
38E0
7FF0
7FF0
7770
7070
7070
F078
ENDCHAR
STARTCHAR 0042
ENCODING 66
SWIDTH 540 0
DWIDTH 12 0
BBX 11 16 1 0
BITMAP
FF80
FFC0
FFE0
E1E0
E0E0
E0E0
E1E0
FFC0
FFC0
FFE0
E0E0
E0E0
E1E0
FFE0
FFC0
FFC0
ENDCHAR
STARTCHAR 0043
ENCODING 67
SWIDTH 540 0
DWIDTH 12 0
BBX 10 16 1 0
BITMAP
FF80
FF80
FFC0
FFC0
E1C0
E000
E000
E000
E000
E000
E000
E000
E3C0
FFC0
FFC0
FF80
ENDCHAR
STARTCHAR 0044
ENCODING 68
SWIDTH 540 0
DWIDTH 12 0
BBX 11 16 1 0
BITMAP
FF80
FFC0
FFE0
FFE0
E1E0
E0E0
E0E0
E0E0
E0E0
E0E0
E0E0
E0E0
E1E0
FFE0
FFC0
FFC0
ENDCHAR
STARTCHAR 0045
ENCODING 69
SWIDTH 540 0
DWIDTH 12 0
BBX 10 16 1 0
BITMAP
FF00
FF80
FFC0
FFC0
E1C0
E000
E000
FF00
FF00
FF00
E000
E000
E1C0
FFC0
FF80
FF80
ENDCHAR
STARTCHAR 0046
ENCODING 70
SWIDTH 495 0
DWIDTH 11 0
BBX 10 16 1 0
BITMAP
FF00
FF80
FF80
FFC0
E1C0
E000
E000
FF00
FF00
FF00
E000
E000
E000
E000
E000
E000
ENDCHAR
STARTCHAR 0047
ENCODING 71
SWIDTH 540 0
DWIDTH 12 0
BBX 10 16 1 0
BITMAP
FF80
FF80
FFC0
FFC0
E1C0
E000
E000
E7C0
E7C0
E7C0
E7C0
E1C0
E1C0
FFC0
FFC0
FFC0
ENDCHAR
STARTCHAR 0048
ENCODING 72
SWIDTH 540 0
DWIDTH 12 0
BBX 11 16 1 0
BITMAP
E0E0
E0E0
E0E0
E0E0
E0E0
E0E0
FFE0
FFE0
FFE0
FFE0
E0E0
E0E0
E0E0
E0E0
E0E0
E0E0
ENDCHAR
STARTCHAR 0049
ENCODING 73
SWIDTH 225 0
DWIDTH 5 0
BBX 3 16 1 0
BITMAP
E0
E0
E0
E0
E0
E0
E0
E0
E0
E0
E0
E0
E0
E0
E0
E0
ENDCHAR
STARTCHAR 004A
ENCODING 74
SWIDTH 495 0
DWIDTH 11 0
BBX 9 16 1 0
BITMAP
3F80
3F80
3F80
3F80
0380
0380
0380
0380
0380
0380
0380
0380
F380
FF80
7F80
7F80
ENDCHAR
STARTCHAR 004B
ENCODING 75
SWIDTH 540 0
DWIDTH 12 0
BBX 11 16 1 0
BITMAP
E1E0
E1E0
E3E0
E7C0
E780
EF00
FF00
FE00
FE00
FE00
EF00
EF80
E7C0
E3C0
E1E0
E1E0
ENDCHAR
STARTCHAR 004C
ENCODING 76
SWIDTH 405 0
DWIDTH 9 0
BBX 8 16 1 0
BITMAP
E0
E0
E0
E0
E0
E0
E0
E0
E0
E0
E0
E0
F0
FF
FF
FE
ENDCHAR
STARTCHAR 004D
ENCODING 77
SWIDTH 675 0
DWIDTH 15 0
BBX 14 16 1 0
BITMAP
38F0
7CF8
FCF8
FCFC
FDFC
EDFC
EDBC
EDBC
EFBC
E7BC
E7BC
E7BC
E03C
E03C
E03C
E03C
ENDCHAR
STARTCHAR 004E
ENCODING 78
SWIDTH 540 0
DWIDTH 12 0
BBX 11 16 1 0
BITMAP
21E0
71E0
F1E0
F9E0
F9E0
FDE0
FDE0
FFE0
EFE0
EFE0
E7E0
E7E0
E3E0
E3E0
E1C0
E180
ENDCHAR
STARTCHAR 004F
ENCODING 79
SWIDTH 585 0
DWIDTH 13 0
BBX 12 16 1 0
BITMAP
3FC0
7FE0
FFF0
FFF0
E0F0
E0F0
E0F0
E0F0
E0F0
E0F0
E0F0
E0F0
F0F0
FFF0
7FE0
7FC0
ENDCHAR
STARTCHAR 0050
ENCODING 80
SWIDTH 540 0
DWIDTH 12 0
BBX 10 16 1 0
BITMAP
FF00
FF80
FFC0
FFC0
E1C0
E1C0
E1C0
FFC0
FFC0
FF80
FF80
E000
E000
E000
E000
E000
ENDCHAR
STARTCHAR 0051
ENCODING 81
SWIDTH 630 0
DWIDTH 14 0
BBX 13 16 1 0
BITMAP
3FC0
7FE0
FFF0
FFF0
E0F0
E0F0
E0F0
E0F0
E0F0
E0F0
E0F0
E0F0
F0F8
FFF8
7FF8
7FD8
ENDCHAR
STARTCHAR 0052
ENCODING 82
SWIDTH 540 0
DWIDTH 12 0
BBX 11 16 1 0
BITMAP
FF00
FF80
FFC0
FFC0
E1C0
E1C0
E3C0
FFC0
FF80
FF00
E780
E380
E3C0
E3C0
E1E0
E1E0
ENDCHAR
STARTCHAR 0053
ENCODING 83
SWIDTH 540 0
DWIDTH 12 0
BBX 10 16 1 0
BITMAP
FF00
FF80
FFC0
FFC0
F1C0
F800
7C00
3E00
1F00
0F80
07C0
03C0
E1C0
FFC0
7FC0
7FC0
ENDCHAR
STARTCHAR 0054
ENCODING 84
SWIDTH 495 0
DWIDTH 11 0
BBX 12 16 0 0
BITMAP
3FC0
7FE0
FFE0
FFF0
CF70
0F00
0F00
0F00
0F00
0F00
0F00
0F00
0F00
0F00
0F00
0F00
ENDCHAR
STARTCHAR 0055
ENCODING 85
SWIDTH 585 0
DWIDTH 13 0
BBX 12 16 1 0
BITMAP
E0F0
E0F0
E0F0
E0F0
E0F0
E0F0
E0F0
E0F0
E0F0
E0F0
E0F0
E0F0
F0F0
FFF0
7FE0
7FC0
ENDCHAR
STARTCHAR 0056
ENCODING 86
SWIDTH 540 0
DWIDTH 12 0
BBX 13 16 0 0
BITMAP
F078
F070
7070
7070
7070
70F0
70E0
38E0
38E0
38E0
38E0
38C0
19C0
1FC0
1FC0
1FC0
ENDCHAR
STARTCHAR 0057
ENCODING 87
SWIDTH 855 0
DWIDTH 19 0
BBX 18 16 1 0
BITMAP
E003C0
F003C0
F003C0
F00380
F00380
71E780
71E780
7BE780
7BF700
7BF700
3F7F00
3F3F00
3F3F00
3F3E00
1E3E00
1E3E00
ENDCHAR
STARTCHAR 0058
ENCODING 88
SWIDTH 585 0
DWIDTH 13 0
BBX 12 16 1 0
BITMAP
E0F0
F0F0
F0F0
71E0
79E0
3BC0
3FC0
1F80
3F80
3FC0
7BC0
79E0
79E0
F1E0
F0F0
E0F0
ENDCHAR
STARTCHAR 0059
ENCODING 89
SWIDTH 450 0
DWIDTH 10 0
BBX 10 16 0 0
BITMAP
E1C0
F1C0
F1C0
73C0
7B80
3B80
3F00
3F00
1F00
1E00
0E00
0E00
0E00
0E00
0E00
0E00
ENDCHAR
STARTCHAR 005A
ENCODING 90
SWIDTH 540 0
DWIDTH 12 0
BBX 11 16 1 0
BITMAP
FF80
FFC0
FFC0
FFC0
07C0
0780
0F80
0F00
1E00
3E00
3C00
7800
7800
FFE0
7FE0
7FE0
ENDCHAR
STARTCHAR 005B
ENCODING 91
SWIDTH 225 0
DWIDTH 5 0
BBX 5 17 0 -1
BITMAP
F8
F8
E0
E0
E0
E0
E0
E0
E0
E0
E0
E0
E0
E0
E0
F8
F8
ENDCHAR
STARTCHAR 005C
ENCODING 92
SWIDTH 225 0
DWIDTH 5 0
BBX 7 18 -1 -1
BITMAP
E0
60
60
60
70
30
30
38
18
18
18
1C
0C
0C
0C
0E
06
06
ENDCHAR
STARTCHAR 005D
ENCODING 93
SWIDTH 225 0
DWIDTH 5 0
BBX 5 17 0 -1
BITMAP
F8
78
18
18
18
18
18
18
18
18
18
18
18
18
18
78
F8
ENDCHAR
STARTCHAR 005E
ENCODING 94
SWIDTH 585 0
DWIDTH 13 0
BBX 11 8 1 8
BITMAP
0E00
1F00
1F80
3B80
71C0
71C0
E0E0
E0E0
ENDCHAR
STARTCHAR 005F
ENCODING 95
SWIDTH 405 0
DWIDTH 9 0
BBX 9 2 0 0
BITMAP
FF80
FF80
ENDCHAR
STARTCHAR 0060
ENCODING 96
SWIDTH 360 0
DWIDTH 8 0
BBX 8 3 0 16
BITMAP
E0
FF
01
ENDCHAR
STARTCHAR 0061
ENCODING 97
SWIDTH 585 0
DWIDTH 13 0
BBX 13 16 0 0
BITMAP
0F80
1FC0
1FC0
1FC0
18C0
38E0
38E0
38E0
38E0
38E0
7FF0
7FF0
7770
7070
7070
F078
ENDCHAR
STARTCHAR 0062
ENCODING 98
SWIDTH 540 0
DWIDTH 12 0
BBX 11 16 1 0
BITMAP
FF80
FFC0
FFE0
E1E0
E0E0
E0E0
E1E0
FFC0
FFC0
FFE0
E0E0
E0E0
E1E0
FFE0
FFC0
FFC0
ENDCHAR
STARTCHAR 0063
ENCODING 99
SWIDTH 540 0
DWIDTH 12 0
BBX 10 16 1 0
BITMAP
FF80
FF80
FFC0
FFC0
E1C0
E000
E000
E000
E000
E000
E000
E000
E3C0
FFC0
FFC0
FF80
ENDCHAR
STARTCHAR 0064
ENCODING 100
SWIDTH 540 0
DWIDTH 12 0
BBX 11 16 1 0
BITMAP
FF80
FFC0
FFE0
FFE0
E1E0
E0E0
E0E0
E0E0
E0E0
E0E0
E0E0
E0E0
E1E0
FFE0
FFC0
FFC0
ENDCHAR
STARTCHAR 0065
ENCODING 101
SWIDTH 540 0
DWIDTH 12 0
BBX 10 16 1 0
BITMAP
FF00
FF80
FFC0
FFC0
E1C0
E000
E000
FF00
FF00
FF00
E000
E000
E1C0
FFC0
FF80
FF80
ENDCHAR
STARTCHAR 0066
ENCODING 102
SWIDTH 495 0
DWIDTH 11 0
BBX 10 16 1 0
BITMAP
FF00
FF80
FF80
FFC0
E1C0
E000
E000
FF00
FF00
FF00
E000
E000
E000
E000
E000
E000
ENDCHAR
STARTCHAR 0067
ENCODING 103
SWIDTH 540 0
DWIDTH 12 0
BBX 10 16 1 0
BITMAP
FF80
FF80
FFC0
FFC0
E1C0
E000
E000
E7C0
E7C0
E7C0
E7C0
E1C0
E1C0
FFC0
FFC0
FFC0
ENDCHAR
STARTCHAR 0068
ENCODING 104
SWIDTH 540 0
DWIDTH 12 0
BBX 11 16 1 0
BITMAP
E0E0
E0E0
E0E0
E0E0
E0E0
E0E0
FFE0
FFE0
FFE0
FFE0
E0E0
E0E0
E0E0
E0E0
E0E0
E0E0
ENDCHAR
STARTCHAR 0069
ENCODING 105
SWIDTH 225 0
DWIDTH 5 0
BBX 3 16 1 0
BITMAP
E0
E0
E0
E0
E0
E0
E0
E0
E0
E0
E0
E0
E0
E0
E0
E0
ENDCHAR
STARTCHAR 006A
ENCODING 106
SWIDTH 495 0
DWIDTH 11 0
BBX 9 16 1 0
BITMAP
3F80
3F80
3F80
3F80
0380
0380
0380
0380
0380
0380
0380
0380
F380
FF80
7F80
7F80
ENDCHAR
STARTCHAR 006B
ENCODING 107
SWIDTH 540 0
DWIDTH 12 0
BBX 11 16 1 0
BITMAP
E1E0
E1E0
E3E0
E7C0
E780
EF00
FF00
FE00
FE00
FE00
EF00
EF80
E7C0
E3C0
E1E0
E1E0
ENDCHAR
STARTCHAR 006C
ENCODING 108
SWIDTH 405 0
DWIDTH 9 0
BBX 8 16 1 0
BITMAP
E0
E0
E0
E0
E0
E0
E0
E0
E0
E0
E0
E0
F0
FF
FF
FE
ENDCHAR
STARTCHAR 006D
ENCODING 109
SWIDTH 675 0
DWIDTH 15 0
BBX 14 16 1 0
BITMAP
38F0
7CF8
FCF8
FCFC
FDFC
EDFC
EDBC
EDBC
EFBC
E7BC
E7BC
E7BC
E03C
E03C
E03C
E03C
ENDCHAR
STARTCHAR 006E
ENCODING 110
SWIDTH 540 0
DWIDTH 12 0
BBX 11 16 1 0
BITMAP
21E0
71E0
F1E0
F9E0
F9E0
FDE0
FDE0
FFE0
EFE0
EFE0
E7E0
E7E0
E3E0
E3E0
E1C0
E180
ENDCHAR
STARTCHAR 006F
ENCODING 111
SWIDTH 585 0
DWIDTH 13 0
BBX 12 16 1 0
BITMAP
3FC0
7FE0
FFF0
FFF0
E0F0
E0F0
E0F0
E0F0
E0F0
E0F0
E0F0
E0F0
F0F0
FFF0
7FE0
7FC0
ENDCHAR
STARTCHAR 0070
ENCODING 112
SWIDTH 540 0
DWIDTH 12 0
BBX 10 16 1 0
BITMAP
FF00
FF80
FFC0
FFC0
E1C0
E1C0
E1C0
FFC0
FFC0
FF80
FF80
E000
E000
E000
E000
E000
ENDCHAR
STARTCHAR 0071
ENCODING 113
SWIDTH 630 0
DWIDTH 14 0
BBX 13 16 1 0
BITMAP
3FC0
7FE0
FFF0
FFF0
E0F0
E0F0
E0F0
E0F0
E0F0
E0F0
E0F0
E0F0
F0F8
FFF8
7FF8
7FD8
ENDCHAR
STARTCHAR 0072
ENCODING 114
SWIDTH 540 0
DWIDTH 12 0
BBX 11 16 1 0
BITMAP
FF00
FF80
FFC0
FFC0
E1C0
E1C0
E3C0
FFC0
FF80
FF00
E780
E380
E3C0
E3C0
E1E0
E1E0
ENDCHAR
STARTCHAR 0073
ENCODING 115
SWIDTH 540 0
DWIDTH 12 0
BBX 10 16 1 0
BITMAP
FF00
FF80
FFC0
FFC0
F1C0
F800
7C00
3E00
1F00
0F80
07C0
03C0
E1C0
FFC0
7FC0
7FC0
ENDCHAR
STARTCHAR 0074
ENCODING 116
SWIDTH 495 0
DWIDTH 11 0
BBX 12 16 0 0
BITMAP
3FC0
7FE0
FFE0
FFF0
CF70
0F00
0F00
0F00
0F00
0F00
0F00
0F00
0F00
0F00
0F00
0F00
ENDCHAR
STARTCHAR 0075
ENCODING 117
SWIDTH 585 0
DWIDTH 13 0
BBX 12 16 1 0
BITMAP
E0F0
E0F0
E0F0
E0F0
E0F0
E0F0
E0F0
E0F0
E0F0
E0F0
E0F0
E0F0
F0F0
FFF0
7FE0
7FC0
ENDCHAR
STARTCHAR 0076
ENCODING 118
SWIDTH 540 0
DWIDTH 12 0
BBX 13 16 0 0
BITMAP
F078
F070
7070
7070
7070
70F0
70E0
38E0
38E0
38E0
38E0
38C0
19C0
1FC0
1FC0
1FC0
ENDCHAR
STARTCHAR 0077
ENCODING 119
SWIDTH 855 0
DWIDTH 19 0
BBX 18 16 1 0
BITMAP
E003C0
F003C0
F003C0
F00380
F00380
71E780
71E780
7BE780
7BF700
7BF700
3F7F00
3F3F00
3F3F00
3F3E00
1E3E00
1E3E00
ENDCHAR
STARTCHAR 0078
ENCODING 120
SWIDTH 585 0
DWIDTH 13 0
BBX 12 16 1 0
BITMAP
E0F0
F0F0
F0F0
71E0
79E0
3BC0
3FC0
1F80
3F80
3FC0
7BC0
79E0
79E0
F1E0
F0F0
E0F0
ENDCHAR
STARTCHAR 0079
ENCODING 121
SWIDTH 450 0
DWIDTH 10 0
BBX 10 16 0 0
BITMAP
E1C0
F1C0
F1C0
73C0
7B80
3B80
3F00
3F00
1F00
1E00
0E00
0E00
0E00
0E00
0E00
0E00
ENDCHAR
STARTCHAR 007A
ENCODING 122
SWIDTH 540 0
DWIDTH 12 0
BBX 11 16 1 0
BITMAP
FF80
FFC0
FFC0
FFC0
07C0
0780
0F80
0F00
1E00
3E00
3C00
7800
7800
FFE0
7FE0
7FE0
ENDCHAR
STARTCHAR 007B
ENCODING 123
SWIDTH 270 0
DWIDTH 6 0
BBX 6 17 0 -1
BITMAP
3C
3C
30
30
30
30
30
E0
E0
70
30
30
30
30
30
3C
3C
ENDCHAR
STARTCHAR 007C
ENCODING 124
SWIDTH 135 0
DWIDTH 3 0
BBX 3 17 0 -1
BITMAP
E0
E0
E0
E0
E0
E0
E0
E0
E0
E0
E0
E0
E0
E0
E0
E0
E0
ENDCHAR
STARTCHAR 007D
ENCODING 125
SWIDTH 270 0
DWIDTH 6 0
BBX 6 17 0 -1
BITMAP
F8
78
38
38
38
38
38
1C
0C
18
38
38
38
38
38
78
F8
ENDCHAR
STARTCHAR 007E
ENCODING 126
SWIDTH 450 0
DWIDTH 10 0
BBX 9 3 1 6
BITMAP
7880
DF80
8200
ENDCHAR
STARTCHAR 00A1
ENCODING 161
SWIDTH 135 0
DWIDTH 3 0
BBX 3 16 0 0
BITMAP
60
60
60
00
60
60
60
60
60
60
60
60
60
60
E0
60
ENDCHAR
STARTCHAR 00A2
ENCODING 162
SWIDTH 540 0
DWIDTH 12 0
BBX 10 20 1 -2
BITMAP
0C00
0C00
FF80
FF80
FFC0
FFC0
E1C0
E000
E000
E000
E000
E000
E000
E000
E3C0
FFC0
FFC0
FF80
0C00
0C00
ENDCHAR
STARTCHAR 00A3
ENCODING 163
SWIDTH 495 0
DWIDTH 11 0
BBX 9 16 1 0
BITMAP
FF80
FF80
FF80
FF80
F380
F000
7000
FF80
FF80
3800
3800
7000
F000
FF80
FF80
FF80
ENDCHAR
STARTCHAR 00A4
ENCODING 164
SWIDTH 315 0
DWIDTH 7 0
BBX 6 6 1 5
BITMAP
8C
F8
C8
C8
F8
8C
ENDCHAR
STARTCHAR 00A5
ENCODING 165
SWIDTH 450 0
DWIDTH 10 0
BBX 10 16 0 0
BITMAP
E1C0
F1C0
F1C0
73C0
7B80
3B80
3F00
3F00
7F80
7F80
7F80
7F80
7F80
7F80
0E00
0E00
ENDCHAR
STARTCHAR 00A6
ENCODING 166
SWIDTH 135 0
DWIDTH 3 0
BBX 3 17 0 -1
BITMAP
E0
E0
E0
E0
E0
E0
E0
00
00
E0
E0
E0
E0
E0
E0
E0
E0
ENDCHAR
STARTCHAR 00A7
ENCODING 167
SWIDTH 405 0
DWIDTH 9 0
BBX 8 16 1 0
BITMAP
7E
FE
FF
E0
70
F8
FC
CE
E7
7F
3F
1C
0E
C6
FE
7E
ENDCHAR
STARTCHAR 00A8
ENCODING 168
SWIDTH 270 0
DWIDTH 6 0
BBX 6 2 0 16
BITMAP
EC
EC
ENDCHAR
STARTCHAR 00A9
ENCODING 169
SWIDTH 720 0
DWIDTH 16 0
BBX 16 17 0 -1
BITMAP
FFFF
FFFF
E003
E003
E7E3
E7E3
E603
E603
E603
E603
E663
E7E3
E7C3
E003
E003
FFFF
7FFE
ENDCHAR
STARTCHAR 00AB
ENCODING 171
SWIDTH 450 0
DWIDTH 10 0
BBX 9 9 1 3
BITMAP
0080
1180
7380
E600
CC00
CE00
6700
3180
1080
ENDCHAR
STARTCHAR 00AC
ENCODING 172
SWIDTH 540 0
DWIDTH 12 0
BBX 12 6 0 3
BITMAP
FFF0
FFF0
FFF0
0030
0030
0030
ENDCHAR
STARTCHAR 00AE
ENCODING 174
SWIDTH 360 0
DWIDTH 8 0
BBX 8 9 0 7
BITMAP
7F
FF
D9
D5
DD
DD
D5
C1
FF
ENDCHAR
STARTCHAR 00AF
ENCODING 175
SWIDTH 405 0
DWIDTH 9 0
BBX 9 3 0 16
BITMAP
FF80
FF80
FF80
ENDCHAR
STARTCHAR 00B0
ENCODING 176
SWIDTH 225 0
DWIDTH 5 0
BBX 4 5 1 11
BITMAP
E0
F0
90
F0
F0
ENDCHAR
STARTCHAR 00B1
ENCODING 177
SWIDTH 405 0
DWIDTH 9 0
BBX 9 12 0 0
BITMAP
0C00
0C00
0C00
FF80
FF80
0C00
0C00
0C00
0C00
FF80
FF80
FF80
ENDCHAR
STARTCHAR 00B4
ENCODING 180
SWIDTH 360 0
DWIDTH 8 0
BBX 8 3 0 16
BITMAP
07
FE
C0
ENDCHAR
STARTCHAR 00B6
ENCODING 182
SWIDTH 405 0
DWIDTH 9 0
BBX 7 16 1 0
BITMAP
FA
FA
FA
FA
FA
FA
FA
FA
0A
0A
0A
0A
0A
0A
0A
0A
ENDCHAR
STARTCHAR 00B7
ENCODING 183
SWIDTH 135 0
DWIDTH 3 0
BBX 3 3 0 7
BITMAP
E0
E0
E0
ENDCHAR
STARTCHAR 00B8
ENCODING 184
SWIDTH 180 0
DWIDTH 4 0
BBX 3 3 1 -3
BITMAP
20
60
C0
ENDCHAR
STARTCHAR 00BB
ENCODING 187
SWIDTH 450 0
DWIDTH 10 0
BBX 9 9 1 3
BITMAP
0800
8C00
EE00
7300
3180
3380
E700
CC00
8800
ENDCHAR
STARTCHAR 00BC
ENCODING 188
SWIDTH 585 0
DWIDTH 13 0
BBX 11 16 1 0
BITMAP
20C0
E0C0
E180
A180
2300
2300
2600
2600
0CC0
0DC0
19C0
1B40
3340
33E0
33E0
6040
ENDCHAR
STARTCHAR 00BD
ENCODING 189
SWIDTH 630 0
DWIDTH 14 0
BBX 12 16 1 0
BITMAP
20C0
E0C0
E180
A180
2300
2300
2600
2600
0CF0
0DF0
1990
1830
3060
30C0
31F0
61F0
ENDCHAR
STARTCHAR 00BE
ENCODING 190
SWIDTH 630 0
DWIDTH 14 0
BBX 12 16 1 0
BITMAP
F860
F860
18C0
78C0
7980
1980
7B00
FB00
0660
06E0
06E0
0DA0
0DA0
19F0
19F0
3020
ENDCHAR
STARTCHAR 00BF
ENCODING 191
SWIDTH 495 0
DWIDTH 11 0
BBX 10 16 1 0
BITMAP
1C00
1C00
1C00
0000
0000
1C00
1C00
1C00
3800
7800
7000
F1C0
F1C0
FFC0
FF80
FF80
ENDCHAR
STARTCHAR 00C0
ENCODING 192
SWIDTH 585 0
DWIDTH 13 0
BBX 13 19 0 0
BITMAP
3800
3FC0
0040
0F80
1FC0
1FC0
1FC0
18C0
38E0
38E0
38E0
38E0
38E0
7FF0
7FF0
7770
7070
7070
F078
ENDCHAR
STARTCHAR 00C1
ENCODING 193
SWIDTH 585 0
DWIDTH 13 0
BBX 13 19 0 0
BITMAP
01C0
3F80
3000
0F80
1FC0
1FC0
1FC0
18C0
38E0
38E0
38E0
38E0
38E0
7FF0
7FF0
7770
7070
7070
F078
ENDCHAR
STARTCHAR 00C2
ENCODING 194
SWIDTH 585 0
DWIDTH 13 0
BBX 13 19 0 0
BITMAP
1FC0
3FE0
3060
0F80
1FC0
1FC0
1FC0
18C0
38E0
38E0
38E0
38E0
38E0
7FF0
7FF0
7770
7070
7070
F078
ENDCHAR
STARTCHAR 00C3
ENCODING 195
SWIDTH 585 0
DWIDTH 13 0
BBX 13 19 0 0
BITMAP
1F20
33E0
2000
0F80
1FC0
1FC0
1FC0
18C0
38E0
38E0
38E0
38E0
38E0
7FF0
7FF0
7770
7070
7070
F078
ENDCHAR
STARTCHAR 00C4
ENCODING 196
SWIDTH 585 0
DWIDTH 13 0
BBX 13 18 0 0
BITMAP
0D80
0D80
0F80
1FC0
1FC0
1FC0
18C0
38E0
38E0
38E0
38E0
38E0
7FF0
7FF0
7770
7070
7070
F078
ENDCHAR
STARTCHAR 00C5
ENCODING 197
SWIDTH 585 0
DWIDTH 13 0
BBX 13 20 0 0
BITMAP
0700
0500
0500
0700
0F80
1FC0
1FC0
1FC0
18C0
38E0
38E0
38E0
38E0
38E0
7FF0
7FF0
7770
7070
7070
F078
ENDCHAR
STARTCHAR 00C6
ENCODING 198
SWIDTH 810 0
DWIDTH 18 0
BBX 18 16 0 0
BITMAP
0FFF00
1FFF80
1FFF80
1FFFC0
19E1C0
39E000
39E000
39FE00
39FE00
39FE00
7FE000
7FE000
77E1C0
71FFC0
71FF80
F1FF00
ENDCHAR
STARTCHAR 00C7
ENCODING 199
SWIDTH 540 0
DWIDTH 12 0
BBX 10 19 1 -3
BITMAP
FF80
FF80
FFC0
FFC0
E1C0
E000
E000
E000
E000
E000
E000
E000
E3C0
FFC0
FFC0
FF80
0400
0C00
1C00
ENDCHAR
STARTCHAR 00C8
ENCODING 200
SWIDTH 540 0
DWIDTH 12 0
BBX 10 19 1 0
BITMAP
6000
7F00
0180
FF00
FF80
FFC0
FFC0
E1C0
E000
E000
FF00
FF00
FF00
E000
E000
E1C0
FFC0
FF80
FF80
ENDCHAR
STARTCHAR 00C9
ENCODING 201
SWIDTH 540 0
DWIDTH 12 0
BBX 10 19 1 0
BITMAP
0780
7F00
6000
FF00
FF80
FFC0
FFC0
E1C0
E000
E000
FF00
FF00
FF00
E000
E000
E1C0
FFC0
FF80
FF80
ENDCHAR
STARTCHAR 00CA
ENCODING 202
SWIDTH 540 0
DWIDTH 12 0
BBX 10 19 1 0
BITMAP
7F00
FF80
C180
FF00
FF80
FFC0
FFC0
E1C0
E000
E000
FF00
FF00
FF00
E000
E000
E1C0
FFC0
FF80
FF80
ENDCHAR
STARTCHAR 00CB
ENCODING 203
SWIDTH 540 0
DWIDTH 12 0
BBX 10 18 1 0
BITMAP
3300
3300
FF00
FF80
FFC0
FFC0
E1C0
E000
E000
FF00
FF00
FF00
E000
E000
E1C0
FFC0
FF80
FF80
ENDCHAR
STARTCHAR 00CC
ENCODING 204
SWIDTH 225 0
DWIDTH 5 0
BBX 8 19 -1 0
BITMAP
E0
FF
01
38
38
38
38
38
38
38
38
38
38
38
38
38
38
38
38
ENDCHAR
STARTCHAR 00CD
ENCODING 205
SWIDTH 225 0
DWIDTH 5 0
BBX 8 19 -1 0
BITMAP
0F
FC
C0
38
38
38
38
38
38
38
38
38
38
38
38
38
38
38
38
ENDCHAR
STARTCHAR 00CE
ENCODING 206
SWIDTH 450 0
DWIDTH 10 0
BBX 9 19 1 0
BITMAP
7F00
FF80
C180
1C00
1C00
1C00
1C00
1C00
1C00
1C00
1C00
1C00
1C00
1C00
1C00
1C00
1C00
1C00
1C00
ENDCHAR
STARTCHAR 00CF
ENCODING 207
SWIDTH 225 0
DWIDTH 5 0
BBX 5 18 0 0
BITMAP
D8
D8
70
70
70
70
70
70
70
70
70
70
70
70
70
70
70
70
ENDCHAR
STARTCHAR 00D0
ENCODING 208
SWIDTH 540 0
DWIDTH 12 0
BBX 12 16 0 0
BITMAP
7FC0
7FE0
7FF0
7FF0
70F0
7070
7070
FC70
FC70
7070
7070
7070
70F0
7FF0
7FE0
7FE0
ENDCHAR
STARTCHAR 00D1
ENCODING 209
SWIDTH 540 0
DWIDTH 12 0
BBX 11 19 1 0
BITMAP
3E40
67C0
4000
21E0
71E0
F1E0
F9E0
F9E0
FDE0
FDE0
FFE0
EFE0
EFE0
E7E0
E7E0
E3E0
E3E0
E1C0
E180
ENDCHAR
STARTCHAR 00D2
ENCODING 210
SWIDTH 585 0
DWIDTH 13 0
BBX 12 19 1 0
BITMAP
3800
3FC0
0040
3FC0
7FE0
FFF0
FFF0
E0F0
E0F0
E0F0
E0F0
E0F0
E0F0
E0F0
E0F0
F0F0
FFF0
7FE0
7FC0
ENDCHAR
STARTCHAR 00D3
ENCODING 211
SWIDTH 585 0
DWIDTH 13 0
BBX 12 19 1 0
BITMAP
01C0
3F80
3000
3FC0
7FE0
FFF0
FFF0
E0F0
E0F0
E0F0
E0F0
E0F0
E0F0
E0F0
E0F0
F0F0
FFF0
7FE0
7FC0
ENDCHAR
STARTCHAR 00D4
ENCODING 212
SWIDTH 585 0
DWIDTH 13 0
BBX 12 19 1 0
BITMAP
3F80
7FC0
6040
3FC0
7FE0
FFF0
FFF0
E0F0
E0F0
E0F0
E0F0
E0F0
E0F0
E0F0
E0F0
F0F0
FFF0
7FE0
7FC0
ENDCHAR
STARTCHAR 00D5
ENCODING 213
SWIDTH 585 0
DWIDTH 13 0
BBX 12 19 1 0
BITMAP
3E40
77C0
4080
3FC0
7FE0
FFF0
FFF0
E0F0
E0F0
E0F0
E0F0
E0F0
E0F0
E0F0
E0F0
F0F0
FFF0
7FE0
7FC0
ENDCHAR
STARTCHAR 00D6
ENCODING 214
SWIDTH 585 0
DWIDTH 13 0
BBX 12 18 1 0
BITMAP
1980
1980
3FC0
7FE0
FFF0
FFF0
E0F0
E0F0
E0F0
E0F0
E0F0
E0F0
E0F0
E0F0
F0F0
FFF0
7FE0
7FC0
ENDCHAR
STARTCHAR 00D7
ENCODING 215
SWIDTH 405 0
DWIDTH 9 0
BBX 9 7 0 4
BITMAP
6300
7700
3E00
1C00
3E00
F780
6300
ENDCHAR
STARTCHAR 00D8
ENCODING 216
SWIDTH 585 0
DWIDTH 13 0
BBX 12 19 1 -2
BITMAP
0060
3FE0
7FE0
FFF0
FFF0
E3F0
E3F0
E7F0
E6F0
E6F0
EEF0
ECF0
FCF0
F8F0
FFF0
7FE0
7FC0
6000
E000
ENDCHAR
STARTCHAR 00D9
ENCODING 217
SWIDTH 585 0
DWIDTH 13 0
BBX 12 19 1 0
BITMAP
3800
3F80
00C0
E0F0
E0F0
E0F0
E0F0
E0F0
E0F0
E0F0
E0F0
E0F0
E0F0
E0F0
E0F0
F0F0
FFF0
7FE0
7FC0
ENDCHAR
STARTCHAR 00DA
ENCODING 218
SWIDTH 585 0
DWIDTH 13 0
BBX 12 19 1 0
BITMAP
01C0
3F80
3000
E0F0
E0F0
E0F0
E0F0
E0F0
E0F0
E0F0
E0F0
E0F0
E0F0
E0F0
E0F0
F0F0
FFF0
7FE0
7FC0
ENDCHAR
STARTCHAR 00DB
ENCODING 219
SWIDTH 585 0
DWIDTH 13 0
BBX 12 19 1 0
BITMAP
3F80
7FC0
6040
E0F0
E0F0
E0F0
E0F0
E0F0
E0F0
E0F0
E0F0
E0F0
E0F0
E0F0
E0F0
F0F0
FFF0
7FE0
7FC0
ENDCHAR
STARTCHAR 00DC
ENCODING 220
SWIDTH 585 0
DWIDTH 13 0
BBX 12 18 1 0
BITMAP
1980
1980
E0F0
E0F0
E0F0
E0F0
E0F0
E0F0
E0F0
E0F0
E0F0
E0F0
E0F0
E0F0
F0F0
FFF0
7FE0
7FC0
ENDCHAR
STARTCHAR 00DD
ENCODING 221
SWIDTH 450 0
DWIDTH 10 0
BBX 10 19 0 0
BITMAP
0380
7F00
6000
E1C0
F1C0
F1C0
73C0
7B80
3B80
3F00
3F00
1F00
1E00
0E00
0E00
0E00
0E00
0E00
0E00
ENDCHAR
STARTCHAR 00DE
ENCODING 222
SWIDTH 540 0
DWIDTH 12 0
BBX 10 18 1 0
BITMAP
E000
E000
FF00
FF80
FFC0
FFC0
E1C0
E1C0
E1C0
FFC0
FFC0
FF80
FF80
E000
E000
E000
E000
E000
ENDCHAR
STARTCHAR 00DF
ENCODING 223
SWIDTH 540 0
DWIDTH 12 0
BBX 11 16 1 0
BITMAP
3F80
7FC0
FFE0
E1E0
E0E0
E0E0
E7E0
EFC0
EFC0
E7E0
E0E0
E0E0
E1E0
EFE0
EFC0
EFC0
ENDCHAR
STARTCHAR 00E0
ENCODING 224
SWIDTH 585 0
DWIDTH 13 0
BBX 13 19 0 0
BITMAP
3800
3FC0
0040
0F80
1FC0
1FC0
1FC0
18C0
38E0
38E0
38E0
38E0
38E0
7FF0
7FF0
7770
7070
7070
F078
ENDCHAR
STARTCHAR 00E1
ENCODING 225
SWIDTH 585 0
DWIDTH 13 0
BBX 13 19 0 0
BITMAP
01C0
3F80
3000
0F80
1FC0
1FC0
1FC0
18C0
38E0
38E0
38E0
38E0
38E0
7FF0
7FF0
7770
7070
7070
F078
ENDCHAR
STARTCHAR 00E2
ENCODING 226
SWIDTH 585 0
DWIDTH 13 0
BBX 13 19 0 0
BITMAP
1FC0
3FE0
3060
0F80
1FC0
1FC0
1FC0
18C0
38E0
38E0
38E0
38E0
38E0
7FF0
7FF0
7770
7070
7070
F078
ENDCHAR
STARTCHAR 00E3
ENCODING 227
SWIDTH 585 0
DWIDTH 13 0
BBX 13 19 0 0
BITMAP
1F20
33E0
2000
0F80
1FC0
1FC0
1FC0
18C0
38E0
38E0
38E0
38E0
38E0
7FF0
7FF0
7770
7070
7070
F078
ENDCHAR
STARTCHAR 00E4
ENCODING 228
SWIDTH 585 0
DWIDTH 13 0
BBX 13 18 0 0
BITMAP
0D80
0D80
0F80
1FC0
1FC0
1FC0
18C0
38E0
38E0
38E0
38E0
38E0
7FF0
7FF0
7770
7070
7070
F078
ENDCHAR
STARTCHAR 00E5
ENCODING 229
SWIDTH 585 0
DWIDTH 13 0
BBX 13 20 0 0
BITMAP
0700
0500
0500
0700
0F80
1FC0
1FC0
1FC0
18C0
38E0
38E0
38E0
38E0
38E0
7FF0
7FF0
7770
7070
7070
F078
ENDCHAR
STARTCHAR 00E6
ENCODING 230
SWIDTH 810 0
DWIDTH 18 0
BBX 18 16 0 0
BITMAP
0FFF00
1FFF80
1FFF80
1FFFC0
19E1C0
39E000
39E000
39FE00
39FE00
39FE00
7FE000
7FE000
77E1C0
71FFC0
71FF80
F1FF00
ENDCHAR
STARTCHAR 00E7
ENCODING 231
SWIDTH 540 0
DWIDTH 12 0
BBX 10 19 1 -3
BITMAP
FF80
FF80
FFC0
FFC0
E1C0
E000
E000
E000
E000
E000
E000
E000
E3C0
FFC0
FFC0
FF80
0400
0C00
1C00
ENDCHAR
STARTCHAR 00E8
ENCODING 232
SWIDTH 540 0
DWIDTH 12 0
BBX 10 19 1 0
BITMAP
6000
7F00
0180
FF00
FF80
FFC0
FFC0
E1C0
E000
E000
FF00
FF00
FF00
E000
E000
E1C0
FFC0
FF80
FF80
ENDCHAR
STARTCHAR 00E9
ENCODING 233
SWIDTH 540 0
DWIDTH 12 0
BBX 10 19 1 0
BITMAP
0780
7F00
6000
FF00
FF80
FFC0
FFC0
E1C0
E000
E000
FF00
FF00
FF00
E000
E000
E1C0
FFC0
FF80
FF80
ENDCHAR
STARTCHAR 00EA
ENCODING 234
SWIDTH 540 0
DWIDTH 12 0
BBX 10 19 1 0
BITMAP
7F00
FF80
C180
FF00
FF80
FFC0
FFC0
E1C0
E000
E000
FF00
FF00
FF00
E000
E000
E1C0
FFC0
FF80
FF80
ENDCHAR
STARTCHAR 00EB
ENCODING 235
SWIDTH 540 0
DWIDTH 12 0
BBX 10 18 1 0
BITMAP
3600
3600
FF00
FF80
FFC0
FFC0
E1C0
E000
E000
FF00
FF00
FF00
E000
E000
E1C0
FFC0
FF80
FF80
ENDCHAR
STARTCHAR 00EC
ENCODING 236
SWIDTH 225 0
DWIDTH 5 0
BBX 8 19 -1 0
BITMAP
C0
FE
03
38
38
38
38
38
38
38
38
38
38
38
38
38
38
38
38
ENDCHAR
STARTCHAR 00ED
ENCODING 237
SWIDTH 225 0
DWIDTH 5 0
BBX 8 19 -1 0
BITMAP
0F
FC
80
38
38
38
38
38
38
38
38
38
38
38
38
38
38
38
38
ENDCHAR
STARTCHAR 00EE
ENCODING 238
SWIDTH 450 0
DWIDTH 10 0
BBX 9 19 1 0
BITMAP
7F00
FF80
C180
0000
1C00
1C00
1C00
1C00
1C00
1C00
1C00
1C00
1C00
1C00
1C00
1C00
1C00
1C00
1C00
ENDCHAR
STARTCHAR 00EF
ENCODING 239
SWIDTH 225 0
DWIDTH 5 0
BBX 5 18 0 0
BITMAP
D8
D8
70
70
70
70
70
70
70
70
70
70
70
70
70
70
70
70
ENDCHAR
STARTCHAR 00F0
ENCODING 240
SWIDTH 540 0
DWIDTH 12 0
BBX 12 16 0 0
BITMAP
7FC0
7FE0
7FF0
7FF0
70F0
7070
7070
FC70
FC70
7070
7070
7070
70F0
7FF0
7FE0
7FE0
ENDCHAR
STARTCHAR 00F1
ENCODING 241
SWIDTH 540 0
DWIDTH 12 0
BBX 11 19 1 0
BITMAP
3E40
67C0
4000
21E0
71E0
F1E0
F9E0
F9E0
FDE0
FDE0
FFE0
EFE0
EFE0
E7E0
E7E0
E3E0
E3E0
E1C0
E180
ENDCHAR
STARTCHAR 00F2
ENCODING 242
SWIDTH 585 0
DWIDTH 13 0
BBX 12 19 1 0
BITMAP
3000
3F80
00C0
3FC0
7FE0
FFF0
FFF0
E0F0
E0F0
E0F0
E0F0
E0F0
E0F0
E0F0
E0F0
F0F0
FFF0
7FE0
7FC0
ENDCHAR
STARTCHAR 00F3
ENCODING 243
SWIDTH 585 0
DWIDTH 13 0
BBX 12 19 1 0
BITMAP
03C0
3F00
3000
3FC0
7FE0
FFF0
FFF0
E0F0
E0F0
E0F0
E0F0
E0F0
E0F0
E0F0
E0F0
F0F0
FFF0
7FE0
7FC0
ENDCHAR
STARTCHAR 00F4
ENCODING 244
SWIDTH 585 0
DWIDTH 13 0
BBX 12 19 1 0
BITMAP
3F80
7FC0
6040
3FC0
7FE0
FFF0
FFF0
E0F0
E0F0
E0F0
E0F0
E0F0
E0F0
E0F0
E0F0
F0F0
FFF0
7FE0
7FC0
ENDCHAR
STARTCHAR 00F5
ENCODING 245
SWIDTH 585 0
DWIDTH 13 0
BBX 12 19 1 0
BITMAP
3E40
77C0
4080
3FC0
7FE0
FFF0
FFF0
E0F0
E0F0
E0F0
E0F0
E0F0
E0F0
E0F0
E0F0
F0F0
FFF0
7FE0
7FC0
ENDCHAR
STARTCHAR 00F6
ENCODING 246
SWIDTH 585 0
DWIDTH 13 0
BBX 12 18 1 0
BITMAP
1980
1980
3FC0
7FE0
FFF0
FFF0
E0F0
E0F0
E0F0
E0F0
E0F0
E0F0
E0F0
E0F0
F0F0
FFF0
7FE0
7FC0
ENDCHAR
STARTCHAR 00F7
ENCODING 247
SWIDTH 405 0
DWIDTH 9 0
BBX 9 8 0 4
BITMAP
0C00
0C00
0000
FF80
FF80
0000
0C00
0C00
ENDCHAR
STARTCHAR 00F8
ENCODING 248
SWIDTH 585 0
DWIDTH 13 0
BBX 12 19 1 -2
BITMAP
0060
3FE0
7FE0
FFF0
FFF0
E3F0
E3F0
E7F0
E6F0
E6F0
EEF0
ECF0
FCF0
F8F0
FFF0
7FE0
7FC0
6000
E000
ENDCHAR
STARTCHAR 00F9
ENCODING 249
SWIDTH 585 0
DWIDTH 13 0
BBX 12 19 1 0
BITMAP
3800
3F80
00C0
E0F0
E0F0
E0F0
E0F0
E0F0
E0F0
E0F0
E0F0
E0F0
E0F0
E0F0
E0F0
F0F0
FFF0
7FE0
7FC0
ENDCHAR
STARTCHAR 00FA
ENCODING 250
SWIDTH 585 0
DWIDTH 13 0
BBX 12 19 1 0
BITMAP
01C0
3F80
3000
E0F0
E0F0
E0F0
E0F0
E0F0
E0F0
E0F0
E0F0
E0F0
E0F0
E0F0
E0F0
F0F0
FFF0
7FE0
7FC0
ENDCHAR
STARTCHAR 00FB
ENCODING 251
SWIDTH 585 0
DWIDTH 13 0
BBX 12 19 1 0
BITMAP
3F80
7FC0
6040
E0F0
E0F0
E0F0
E0F0
E0F0
E0F0
E0F0
E0F0
E0F0
E0F0
E0F0
E0F0
F0F0
FFF0
7FE0
7FC0
ENDCHAR
STARTCHAR 00FC
ENCODING 252
SWIDTH 585 0
DWIDTH 13 0
BBX 12 18 1 0
BITMAP
1980
1980
E0F0
E0F0
E0F0
E0F0
E0F0
E0F0
E0F0
E0F0
E0F0
E0F0
E0F0
E0F0
F0F0
FFF0
7FE0
7FC0
ENDCHAR
STARTCHAR 00FD
ENCODING 253
SWIDTH 450 0
DWIDTH 10 0
BBX 10 19 0 0
BITMAP
0380
7F00
6000
E1C0
F1C0
F1C0
73C0
7B80
3B80
3F00
3F00
1F00
1E00
0E00
0E00
0E00
0E00
0E00
0E00
ENDCHAR
STARTCHAR 00FE
ENCODING 254
SWIDTH 540 0
DWIDTH 12 0
BBX 10 18 1 0
BITMAP
E000
E000
FF00
FF80
FFC0
FFC0
E1C0
E1C0
E1C0
FFC0
FFC0
FF80
FF80
E000
E000
E000
E000
E000
ENDCHAR
STARTCHAR 00FF
ENCODING 255
SWIDTH 450 0
DWIDTH 10 0
BBX 10 18 0 0
BITMAP
3300
3300
E1C0
F1C0
F1C0
73C0
7B80
3B80
3F00
3F00
1F00
1E00
0E00
0E00
0E00
0E00
0E00
0E00
ENDCHAR
STARTCHAR 0100
ENCODING 256
SWIDTH 585 0
DWIDTH 13 0
BBX 13 19 0 0
BITMAP
3FE0
3FE0
3FE0
0F80
1FC0
1FC0
1FC0
18C0
38E0
38E0
38E0
38E0
38E0
7FF0
7FF0
7770
7070
7070
F078
ENDCHAR
STARTCHAR 0101
ENCODING 257
SWIDTH 585 0
DWIDTH 13 0
BBX 13 19 0 0
BITMAP
3FE0
3FE0
3FE0
0F80
1FC0
1FC0
1FC0
18C0
38E0
38E0
38E0
38E0
38E0
7FF0
7FF0
7770
7070
7070
F078
ENDCHAR
STARTCHAR 0102
ENCODING 258
SWIDTH 585 0
DWIDTH 13 0
BBX 13 19 0 0
BITMAP
3060
3FC0
1F80
0F80
1FC0
1FC0
1FC0
18C0
38E0
38E0
38E0
38E0
38E0
7FF0
7FF0
7770
7070
7070
F078
ENDCHAR
STARTCHAR 0103
ENCODING 259
SWIDTH 585 0
DWIDTH 13 0
BBX 13 19 0 0
BITMAP
3060
3FC0
1F80
0F80
1FC0
1FC0
1FC0
18C0
38E0
38E0
38E0
38E0
38E0
7FF0
7FF0
7770
7070
7070
F078
ENDCHAR
STARTCHAR 0104
ENCODING 260
SWIDTH 585 0
DWIDTH 13 0
BBX 14 19 0 -3
BITMAP
0F80
1FC0
1FC0
1FC0
18C0
38E0
38E0
38E0
38E0
38E0
7FF0
7FF0
7770
7070
7070
F078
0010
0030
003C
ENDCHAR
STARTCHAR 0105
ENCODING 261
SWIDTH 585 0
DWIDTH 13 0
BBX 14 19 0 -3
BITMAP
0F80
1FC0
1FC0
1FC0
18C0
38E0
38E0
38E0
38E0
38E0
7FF0
7FF0
7770
7070
7070
F078
0010
0030
003C
ENDCHAR
STARTCHAR 0106
ENCODING 262
SWIDTH 540 0
DWIDTH 12 0
BBX 10 19 1 0
BITMAP
0380
7F00
6000
FF80
FF80
FFC0
FFC0
E1C0
E000
E000
E000
E000
E000
E000
E000
E3C0
FFC0
FFC0
FF80
ENDCHAR
STARTCHAR 0107
ENCODING 263
SWIDTH 540 0
DWIDTH 12 0
BBX 10 19 1 0
BITMAP
0380
7F00
6000
FF80
FF80
FFC0
FFC0
E1C0
E000
E000
E000
E000
E000
E000
E000
E3C0
FFC0
FFC0
FF80
ENDCHAR
STARTCHAR 0108
ENCODING 264
SWIDTH 540 0
DWIDTH 12 0
BBX 10 19 1 0
BITMAP
7F00
FF80
C180
FF80
FF80
FFC0
FFC0
E1C0
E000
E000
E000
E000
E000
E000
E000
E3C0
FFC0
FFC0
FF80
ENDCHAR
STARTCHAR 0109
ENCODING 265
SWIDTH 540 0
DWIDTH 12 0
BBX 10 19 1 0
BITMAP
7F00
FF80
C180
FF80
FF80
FFC0
FFC0
E1C0
E000
E000
E000
E000
E000
E000
E000
E3C0
FFC0
FFC0
FF80
ENDCHAR
STARTCHAR 010A
ENCODING 266
SWIDTH 540 0
DWIDTH 12 0
BBX 10 19 1 0
BITMAP
0C00
0C00
0C00
FF80
FF80
FFC0
FFC0
E1C0
E000
E000
E000
E000
E000
E000
E000
E3C0
FFC0
FFC0
FF80
ENDCHAR
STARTCHAR 010B
ENCODING 267
SWIDTH 540 0
DWIDTH 12 0
BBX 10 19 1 0
BITMAP
0C00
0C00
0C00
FF80
FF80
FFC0
FFC0
E1C0
E000
E000
E000
E000
E000
E000
E000
E3C0
FFC0
FFC0
FF80
ENDCHAR
STARTCHAR 010C
ENCODING 268
SWIDTH 540 0
DWIDTH 12 0
BBX 10 19 1 0
BITMAP
2300
3E00
1C00
FF80
FF80
FFC0
FFC0
E1C0
E000
E000
E000
E000
E000
E000
E000
E3C0
FFC0
FFC0
FF80
ENDCHAR
STARTCHAR 010D
ENCODING 269
SWIDTH 540 0
DWIDTH 12 0
BBX 10 19 1 0
BITMAP
2300
3E00
1C00
FF80
FF80
FFC0
FFC0
E1C0
E000
E000
E000
E000
E000
E000
E000
E3C0
FFC0
FFC0
FF80
ENDCHAR
STARTCHAR 010E
ENCODING 270
SWIDTH 540 0
DWIDTH 12 0
BBX 11 19 1 0
BITMAP
3100
1F00
0E00
FF80
FFC0
FFE0
FFE0
E1E0
E0E0
E0E0
E0E0
E0E0
E0E0
E0E0
E0E0
E1E0
FFE0
FFC0
FFC0
ENDCHAR
STARTCHAR 010F
ENCODING 271
SWIDTH 720 0
DWIDTH 16 0
BBX 16 16 1 0
BITMAP
FF86
FFC7
FFE7
FFE6
E1EE
E0EC
E0E0
E0E0
E0E0
E0E0
E0E0
E0E0
E1E0
FFE0
FFC0
FFC0
ENDCHAR
STARTCHAR 0110
ENCODING 272
SWIDTH 540 0
DWIDTH 12 0
BBX 12 16 0 0
BITMAP
7FC0
7FE0
7FF0
7FF0
70F0
7070
7070
FC70
FC70
7070
7070
7070
70F0
7FF0
7FE0
7FE0
ENDCHAR
STARTCHAR 0111
ENCODING 273
SWIDTH 540 0
DWIDTH 12 0
BBX 12 16 0 0
BITMAP
7FC0
7FE0
7FF0
7FF0
70F0
7070
7070
FC70
FC70
7070
7070
7070
70F0
7FF0
7FE0
7FE0
ENDCHAR
STARTCHAR 0112
ENCODING 274
SWIDTH 540 0
DWIDTH 12 0
BBX 10 19 1 0
BITMAP
FF80
FF80
FF80
FF00
FF80
FFC0
FFC0
E1C0
E000
E000
FF00
FF00
FF00
E000
E000
E1C0
FFC0
FF80
FF80
ENDCHAR
STARTCHAR 0113
ENCODING 275
SWIDTH 540 0
DWIDTH 12 0
BBX 10 19 1 0
BITMAP
FF80
FF80
FF80
FF00
FF80
FFC0
FFC0
E1C0
E000
E000
FF00
FF00
FF00
E000
E000
E1C0
FFC0
FF80
FF80
ENDCHAR
STARTCHAR 0116
ENCODING 278
SWIDTH 540 0
DWIDTH 12 0
BBX 10 19 1 0
BITMAP
1C00
1C00
0C00
FF00
FF80
FFC0
FFC0
E1C0
E000
E000
FF00
FF00
FF00
E000
E000
E1C0
FFC0
FF80
FF80
ENDCHAR
STARTCHAR 0117
ENCODING 279
SWIDTH 540 0
DWIDTH 12 0
BBX 10 19 1 0
BITMAP
1C00
1C00
0C00
FF00
FF80
FFC0
FFC0
E1C0
E000
E000
FF00
FF00
FF00
E000
E000
E1C0
FFC0
FF80
FF80
ENDCHAR
STARTCHAR 0118
ENCODING 280
SWIDTH 540 0
DWIDTH 12 0
BBX 10 19 1 -3
BITMAP
FF00
FF80
FFC0
FFC0
E1C0
E000
E000
FF00
FF00
FF00
E000
E000
E1C0
FFC0
FF80
FF80
0800
1800
1E00
ENDCHAR
STARTCHAR 0119
ENCODING 281
SWIDTH 540 0
DWIDTH 12 0
BBX 10 19 1 -3
BITMAP
FF00
FF80
FFC0
FFC0
E1C0
E000
E000
FF00
FF00
FF00
E000
E000
E1C0
FFC0
FF80
FF80
0800
1800
1E00
ENDCHAR
STARTCHAR 011C
ENCODING 284
SWIDTH 540 0
DWIDTH 12 0
BBX 10 19 1 0
BITMAP
3F00
FFC0
C0C0
FF80
FF80
FFC0
FFC0
E1C0
E000
E000
E7C0
E7C0
E7C0
E7C0
E1C0
E1C0
FFC0
FFC0
FFC0
ENDCHAR
STARTCHAR 011D
ENCODING 285
SWIDTH 540 0
DWIDTH 12 0
BBX 10 19 1 0
BITMAP
3F00
FFC0
C0C0
FF80
FF80
FFC0
FFC0
E1C0
E000
E000
E7C0
E7C0
E7C0
E7C0
E1C0
E1C0
FFC0
FFC0
FFC0
ENDCHAR
STARTCHAR 011E
ENCODING 286
SWIDTH 540 0
DWIDTH 12 0
BBX 10 19 1 0
BITMAP
E1C0
7F80
3F00
FF80
FF80
FFC0
FFC0
E1C0
E000
E000
E7C0
E7C0
E7C0
E7C0
E1C0
E1C0
FFC0
FFC0
FFC0
ENDCHAR
STARTCHAR 011F
ENCODING 287
SWIDTH 540 0
DWIDTH 12 0
BBX 10 19 1 0
BITMAP
E1C0
7F80
3F00
FF80
FF80
FFC0
FFC0
E1C0
E000
E000
E7C0
E7C0
E7C0
E7C0
E1C0
E1C0
FFC0
FFC0
FFC0
ENDCHAR
STARTCHAR 0120
ENCODING 288
SWIDTH 540 0
DWIDTH 12 0
BBX 10 19 1 0
BITMAP
0E00
0E00
0C00
FF80
FF80
FFC0
FFC0
E1C0
E000
E000
E7C0
E7C0
E7C0
E7C0
E1C0
E1C0
FFC0
FFC0
FFC0
ENDCHAR
STARTCHAR 0121
ENCODING 289
SWIDTH 540 0
DWIDTH 12 0
BBX 10 19 1 0
BITMAP
0E00
0E00
0C00
FF80
FF80
FFC0
FFC0
E1C0
E000
E000
E7C0
E7C0
E7C0
E7C0
E1C0
E1C0
FFC0
FFC0
FFC0
ENDCHAR
STARTCHAR 0122
ENCODING 290
SWIDTH 540 0
DWIDTH 12 0
BBX 10 20 1 -4
BITMAP
FF80
FF80
FFC0
FFC0
E1C0
E000
E000
E7C0
E7C0
E7C0
E7C0
E1C0
E1C0
FFC0
FFC0
FFC0
0C00
0C00
0C00
0800
ENDCHAR
STARTCHAR 0123
ENCODING 291
SWIDTH 540 0
DWIDTH 12 0
BBX 10 20 1 -4
BITMAP
FF80
FF80
FFC0
FFC0
E1C0
E000
E000
E7C0
E7C0
E7C0
E7C0
E1C0
E1C0
FFC0
FFC0
FFC0
0C00
0C00
0C00
0800
ENDCHAR
STARTCHAR 0124
ENCODING 292
SWIDTH 540 0
DWIDTH 12 0
BBX 11 19 1 0
BITMAP
3F80
7FC0
60C0
E0E0
E0E0
E0E0
E0E0
E0E0
E0E0
FFE0
FFE0
FFE0
FFE0
E0E0
E0E0
E0E0
E0E0
E0E0
E0E0
ENDCHAR
STARTCHAR 0125
ENCODING 293
SWIDTH 540 0
DWIDTH 12 0
BBX 11 19 1 0
BITMAP
3F80
7FC0
60C0
E0E0
E0E0
E0E0
E0E0
E0E0
E0E0
FFE0
FFE0
FFE0
FFE0
E0E0
E0E0
E0E0
E0E0
E0E0
E0E0
ENDCHAR
STARTCHAR 0126
ENCODING 294
SWIDTH 540 0
DWIDTH 12 0
BBX 15 16 -1 0
BITMAP
3838
3838
FFFE
FFFE
3838
3838
3FF8
3FF8
3FF8
3FF8
3838
3838
3838
3838
3838
3838
ENDCHAR
STARTCHAR 0127
ENCODING 295
SWIDTH 540 0
DWIDTH 12 0
BBX 15 16 -1 0
BITMAP
3838
3838
FFFE
FFFE
3838
3838
3FF8
3FF8
3FF8
3FF8
3838
3838
3838
3838
3838
3838
ENDCHAR
STARTCHAR 0128
ENCODING 296
SWIDTH 225 0
DWIDTH 5 0
BBX 9 19 -2 0
BITMAP
7C80
EF80
8000
1C00
1C00
1C00
1C00
1C00
1C00
1C00
1C00
1C00
1C00
1C00
1C00
1C00
1C00
1C00
1C00
ENDCHAR
STARTCHAR 0129
ENCODING 297
SWIDTH 225 0
DWIDTH 5 0
BBX 9 19 -2 0
BITMAP
7C80
EF80
8000
1C00
1C00
1C00
1C00
1C00
1C00
1C00
1C00
1C00
1C00
1C00
1C00
1C00
1C00
1C00
1C00
ENDCHAR
STARTCHAR 012A
ENCODING 298
SWIDTH 225 0
DWIDTH 5 0
BBX 9 19 -2 0
BITMAP
FF80
FF80
FF80
1C00
1C00
1C00
1C00
1C00
1C00
1C00
1C00
1C00
1C00
1C00
1C00
1C00
1C00
1C00
1C00
ENDCHAR
STARTCHAR 012B
ENCODING 299
SWIDTH 225 0
DWIDTH 5 0
BBX 9 19 -2 0
BITMAP
FF80
FF80
FF80
1C00
1C00
1C00
1C00
1C00
1C00
1C00
1C00
1C00
1C00
1C00
1C00
1C00
1C00
1C00
1C00
ENDCHAR
STARTCHAR 012E
ENCODING 302
SWIDTH 225 0
DWIDTH 5 0
BBX 3 19 1 -3
BITMAP
E0
E0
E0
E0
E0
E0
E0
E0
E0
E0
E0
E0
E0
E0
E0
E0
C0
80
E0
ENDCHAR
STARTCHAR 012F
ENCODING 303
SWIDTH 225 0
DWIDTH 5 0
BBX 3 19 1 -3
BITMAP
E0
E0
E0
E0
E0
E0
E0
E0
E0
E0
E0
E0
E0
E0
E0
E0
C0
80
E0
ENDCHAR
STARTCHAR 0134
ENCODING 308
SWIDTH 495 0
DWIDTH 11 0
BBX 9 19 1 0
BITMAP
1F00
3F80
2080
3F80
3F80
3F80
3F80
0380
0380
0380
0380
0380
0380
0380
0380
F380
FF80
7F80
7F80
ENDCHAR
STARTCHAR 0135
ENCODING 309
SWIDTH 495 0
DWIDTH 11 0
BBX 9 19 1 0
BITMAP
1F00
3F80
2080
3F80
3F80
3F80
3F80
0380
0380
0380
0380
0380
0380
0380
0380
F380
FF80
7F80
7F80
ENDCHAR
STARTCHAR 0136
ENCODING 310
SWIDTH 540 0
DWIDTH 12 0
BBX 11 20 1 -4
BITMAP
E1E0
E1E0
E3E0
E7C0
E780
EF00
FF00
FE00
FE00
FE00
EF00
EF80
E7C0
E3C0
E1E0
E1E0
0400
0400
0400
0800
ENDCHAR
STARTCHAR 0137
ENCODING 311
SWIDTH 540 0
DWIDTH 12 0
BBX 11 20 1 -4
BITMAP
E1E0
E1E0
E3E0
E7C0
E780
EF00
FF00
FE00
FE00
FE00
EF00
EF80
E7C0
E3C0
E1E0
E1E0
0400
0400
0400
0800
ENDCHAR
STARTCHAR 0139
ENCODING 313
SWIDTH 405 0
DWIDTH 9 0
BBX 10 19 -1 0
BITMAP
0700
FE00
C000
3800
3800
3800
3800
3800
3800
3800
3800
3800
3800
3800
3800
3C00
3FC0
3FC0
3F80
ENDCHAR
STARTCHAR 013A
ENCODING 314
SWIDTH 405 0
DWIDTH 9 0
BBX 10 19 -1 0
BITMAP
0700
FE00
C000
3800
3800
3800
3800
3800
3800
3800
3800
3800
3800
3800
3800
3C00
3FC0
3FC0
3F80
ENDCHAR
STARTCHAR 013C
ENCODING 316
SWIDTH 405 0
DWIDTH 9 0
BBX 8 20 1 -4
BITMAP
E0
E0
E0
E0
E0
E0
E0
E0
E0
E0
E0
E0
F0
FF
FF
FE
10
18
18
30
ENDCHAR
STARTCHAR 013D
ENCODING 317
SWIDTH 405 0
DWIDTH 9 0
BBX 9 19 0 0
BITMAP
8C00
F800
7000
7000
7000
7000
7000
7000
7000
7000
7000
7000
7000
7000
7000
7800
7F80
7F80
7F00
ENDCHAR
STARTCHAR 013E
ENCODING 318
SWIDTH 405 0
DWIDTH 9 0
BBX 9 19 0 0
BITMAP
8C00
F800
7000
7000
7000
7000
7000
7000
7000
7000
7000
7000
7000
7000
7000
7800
7F80
7F80
7F00
ENDCHAR
STARTCHAR 0141
ENCODING 321
SWIDTH 495 0
DWIDTH 11 0
BBX 10 16 1 0
BITMAP
3800
3800
3800
3800
3900
3F00
3F00
7C00
F800
F800
B800
3800
3C00
3FC0
3FC0
3F80
ENDCHAR
STARTCHAR 0142
ENCODING 322
SWIDTH 495 0
DWIDTH 11 0
BBX 10 16 1 0
BITMAP
3800
3800
3800
3800
3900
3F00
3F00
7C00
F800
F800
B800
3800
3C00
3FC0
3FC0
3F80
ENDCHAR
STARTCHAR 0143
ENCODING 323
SWIDTH 540 0
DWIDTH 12 0
BBX 11 19 1 0
BITMAP
0380
7F00
6000
21E0
71E0
F1E0
F9E0
F9E0
FDE0
FDE0
FFE0
EFE0
EFE0
E7E0
E7E0
E3E0
E3E0
E1C0
E180
ENDCHAR
STARTCHAR 0144
ENCODING 324
SWIDTH 540 0
DWIDTH 12 0
BBX 11 19 1 0
BITMAP
0380
7F00
6000
21E0
71E0
F1E0
F9E0
F9E0
FDE0
FDE0
FFE0
EFE0
EFE0
E7E0
E7E0
E3E0
E3E0
E1C0
E180
ENDCHAR
STARTCHAR 0145
ENCODING 325
SWIDTH 540 0
DWIDTH 12 0
BBX 11 20 1 -4
BITMAP
21E0
71E0
F1E0
F9E0
F9E0
FDE0
FDE0
FFE0
EFE0
EFE0
E7E0
E7E0
E3E0
E3E0
E1C0
E180
0400
0600
0400
0C00
ENDCHAR
STARTCHAR 0146
ENCODING 326
SWIDTH 540 0
DWIDTH 12 0
BBX 11 20 1 -4
BITMAP
21E0
71E0
F1E0
F9E0
F9E0
FDE0
FDE0
FFE0
EFE0
EFE0
E7E0
E7E0
E3E0
E3E0
E1C0
E180
0400
0600
0400
0C00
ENDCHAR
STARTCHAR 0147
ENCODING 327
SWIDTH 540 0
DWIDTH 12 0
BBX 11 19 1 0
BITMAP
3100
1F00
0E00
21E0
71E0
F1E0
F9E0
F9E0
FDE0
FDE0
FFE0
EFE0
EFE0
E7E0
E7E0
E3E0
E3E0
E1C0
E180
ENDCHAR
STARTCHAR 0148
ENCODING 328
SWIDTH 540 0
DWIDTH 12 0
BBX 11 19 1 0
BITMAP
3100
1F00
0E00
21E0
71E0
F1E0
F9E0
F9E0
FDE0
FDE0
FFE0
EFE0
EFE0
E7E0
E7E0
E3E0
E3E0
E1C0
E180
ENDCHAR
STARTCHAR 014C
ENCODING 332
SWIDTH 585 0
DWIDTH 13 0
BBX 12 19 1 0
BITMAP
3FC0
3FC0
3FC0
3FC0
7FE0
FFF0
FFF0
E0F0
E0F0
E0F0
E0F0
E0F0
E0F0
E0F0
E0F0
F0F0
FFF0
7FE0
7FC0
ENDCHAR
STARTCHAR 014D
ENCODING 333
SWIDTH 585 0
DWIDTH 13 0
BBX 12 19 1 0
BITMAP
3FC0
3FC0
3FC0
3FC0
7FE0
FFF0
FFF0
E0F0
E0F0
E0F0
E0F0
E0F0
E0F0
E0F0
E0F0
F0F0
FFF0
7FE0
7FC0
ENDCHAR
STARTCHAR 0150
ENCODING 336
SWIDTH 585 0
DWIDTH 13 0
BBX 12 20 1 0
BITMAP
0780
0580
0D00
0B00
3FC0
7FE0
FFF0
FFF0
E0F0
E0F0
E0F0
E0F0
E0F0
E0F0
E0F0
E0F0
F0F0
FFF0
7FE0
7FC0
ENDCHAR
STARTCHAR 0151
ENCODING 337
SWIDTH 585 0
DWIDTH 13 0
BBX 12 20 1 0
BITMAP
0780
0580
0D00
0B00
3FC0
7FE0
FFF0
FFF0
E0F0
E0F0
E0F0
E0F0
E0F0
E0F0
E0F0
E0F0
F0F0
FFF0
7FE0
7FC0
ENDCHAR
STARTCHAR 0152
ENCODING 338
SWIDTH 855 0
DWIDTH 19 0
BBX 17 16 1 0
BITMAP
3FFE00
7FFF00
FFFF80
FFFF80
E1C380
E1C000
E1C000
E1FE00
E1FE00
E1FE00
E1C000
E1C000
F1C380
FFFF80
7FFF80
7FFF00
ENDCHAR
STARTCHAR 0153
ENCODING 339
SWIDTH 855 0
DWIDTH 19 0
BBX 17 16 1 0
BITMAP
3FFE00
7FFF00
FFFF80
FFFF80
E1C380
E1C000
E1C000
E1FE00
E1FE00
E1FE00
E1C000
E1C000
F1C380
FFFF80
7FFF80
7FFF00
ENDCHAR
STARTCHAR 0154
ENCODING 340
SWIDTH 540 0
DWIDTH 12 0
BBX 11 19 1 0
BITMAP
0380
7F00
6000
FF00
FF80
FFC0
FFC0
E1C0
E1C0
E3C0
FFC0
FF80
FF00
E780
E380
E3C0
E3C0
E1E0
E1E0
ENDCHAR
STARTCHAR 0155
ENCODING 341
SWIDTH 540 0
DWIDTH 12 0
BBX 11 19 1 0
BITMAP
0380
7F00
6000
FF00
FF80
FFC0
FFC0
E1C0
E1C0
E3C0
FFC0
FF80
FF00
E780
E380
E3C0
E3C0
E1E0
E1E0
ENDCHAR
STARTCHAR 0156
ENCODING 342
SWIDTH 540 0
DWIDTH 12 0
BBX 11 20 1 -4
BITMAP
FF00
FF80
FFC0
FFC0
E1C0
E1C0
E3C0
FFC0
FF80
FF00
E780
E380
E3C0
E3C0
E1E0
E1E0
0400
0400
0400
0800
ENDCHAR
STARTCHAR 0157
ENCODING 343
SWIDTH 540 0
DWIDTH 12 0
BBX 11 20 1 -4
BITMAP
FF00
FF80
FFC0
FFC0
E1C0
E1C0
E3C0
FFC0
FF80
FF00
E780
E380
E3C0
E3C0
E1E0
E1E0
0400
0400
0400
0800
ENDCHAR
STARTCHAR 0158
ENCODING 344
SWIDTH 540 0
DWIDTH 12 0
BBX 11 19 1 0
BITMAP
2300
3E00
1C00
FF00
FF80
FFC0
FFC0
E1C0
E1C0
E3C0
FFC0
FF80
FF00
E780
E380
E3C0
E3C0
E1E0
E1E0
ENDCHAR
STARTCHAR 0159
ENCODING 345
SWIDTH 540 0
DWIDTH 12 0
BBX 11 19 1 0
BITMAP
2300
3E00
1C00
FF00
FF80
FFC0
FFC0
E1C0
E1C0
E3C0
FFC0
FF80
FF00
E780
E380
E3C0
E3C0
E1E0
E1E0
ENDCHAR
STARTCHAR 015C
ENCODING 348
SWIDTH 540 0
DWIDTH 12 0
BBX 10 19 1 0
BITMAP
7F00
FF80
C180
FF00
FF80
FFC0
FFC0
F1C0
F800
7C00
3E00
1F00
0F80
07C0
03C0
E1C0
FFC0
7FC0
7FC0
ENDCHAR
STARTCHAR 015D
ENCODING 349
SWIDTH 540 0
DWIDTH 12 0
BBX 10 19 1 0
BITMAP
7F00
FF80
C180
FF00
FF80
FFC0
FFC0
F1C0
F800
7C00
3E00
1F00
0F80
07C0
03C0
E1C0
FFC0
7FC0
7FC0
ENDCHAR
STARTCHAR 015E
ENCODING 350
SWIDTH 540 0
DWIDTH 12 0
BBX 10 19 1 -3
BITMAP
FF00
FF80
FFC0
FFC0
F1C0
F800
7C00
3E00
1F00
0F80
07C0
03C0
E1C0
FFC0
7FC0
7FC0
0600
0C00
0C00
ENDCHAR
STARTCHAR 015F
ENCODING 351
SWIDTH 540 0
DWIDTH 12 0
BBX 10 19 1 -3
BITMAP
FF00
FF80
FFC0
FFC0
F1C0
F800
7C00
3E00
1F00
0F80
07C0
03C0
E1C0
FFC0
7FC0
7FC0
0600
0C00
0C00
ENDCHAR
STARTCHAR 0160
ENCODING 352
SWIDTH 540 0
DWIDTH 12 0
BBX 10 19 1 0
BITMAP
2300
3E00
1C00
FF00
FF80
FFC0
FFC0
F1C0
F800
7C00
3E00
1F00
0F80
07C0
03C0
E1C0
FFC0
7FC0
7FC0
ENDCHAR
STARTCHAR 0161
ENCODING 353
SWIDTH 540 0
DWIDTH 12 0
BBX 10 19 1 0
BITMAP
2300
3E00
1C00
FF00
FF80
FFC0
FFC0
F1C0
F800
7C00
3E00
1F00
0F80
07C0
03C0
E1C0
FFC0
7FC0
7FC0
ENDCHAR
STARTCHAR 0162
ENCODING 354
SWIDTH 495 0
DWIDTH 11 0
BBX 12 19 0 -3
BITMAP
3FC0
7FE0
FFE0
FFF0
CF70
0F00
0F00
0F00
0F00
0F00
0F00
0F00
0F00
0F00
0F00
0F00
0200
0600
0E00
ENDCHAR
STARTCHAR 0163
ENCODING 355
SWIDTH 495 0
DWIDTH 11 0
BBX 12 19 0 -3
BITMAP
3FC0
7FE0
FFE0
FFF0
CF70
0F00
0F00
0F00
0F00
0F00
0F00
0F00
0F00
0F00
0F00
0F00
0200
0600
0E00
ENDCHAR
STARTCHAR 0164
ENCODING 356
SWIDTH 495 0
DWIDTH 11 0
BBX 12 19 0 0
BITMAP
1980
1F00
0600
3FC0
7FE0
FFE0
FFF0
CF70
0F00
0F00
0F00
0F00
0F00
0F00
0F00
0F00
0F00
0F00
0F00
ENDCHAR
STARTCHAR 0165
ENCODING 357
SWIDTH 495 0
DWIDTH 11 0
BBX 12 19 0 0
BITMAP
1980
1F00
0600
3FC0
7FE0
FFE0
FFF0
CF70
0F00
0F00
0F00
0F00
0F00
0F00
0F00
0F00
0F00
0F00
0F00
ENDCHAR
STARTCHAR 0166
ENCODING 358
SWIDTH 495 0
DWIDTH 11 0
BBX 12 16 0 0
BITMAP
3FC0
7FE0
FFE0
FFF0
CF70
0F00
0F00
3FC0
3FC0
0F00
0F00
0F00
0F00
0F00
0F00
0F00
ENDCHAR
STARTCHAR 0167
ENCODING 359
SWIDTH 495 0
DWIDTH 11 0
BBX 12 16 0 0
BITMAP
3FC0
7FE0
FFE0
FFF0
CF70
0F00
0F00
3FC0
3FC0
0F00
0F00
0F00
0F00
0F00
0F00
0F00
ENDCHAR
STARTCHAR 0168
ENCODING 360
SWIDTH 585 0
DWIDTH 13 0
BBX 12 19 1 0
BITMAP
3E40
77C0
4080
E0F0
E0F0
E0F0
E0F0
E0F0
E0F0
E0F0
E0F0
E0F0
E0F0
E0F0
E0F0
F0F0
FFF0
7FE0
7FC0
ENDCHAR
STARTCHAR 0169
ENCODING 361
SWIDTH 585 0
DWIDTH 13 0
BBX 12 19 1 0
BITMAP
3E40
77C0
4080
E0F0
E0F0
E0F0
E0F0
E0F0
E0F0
E0F0
E0F0
E0F0
E0F0
E0F0
E0F0
F0F0
FFF0
7FE0
7FC0
ENDCHAR
STARTCHAR 016A
ENCODING 362
SWIDTH 585 0
DWIDTH 13 0
BBX 12 19 1 0
BITMAP
7FC0
7FC0
7FC0
E0F0
E0F0
E0F0
E0F0
E0F0
E0F0
E0F0
E0F0
E0F0
E0F0
E0F0
E0F0
F0F0
FFF0
7FE0
7FC0
ENDCHAR
STARTCHAR 016B
ENCODING 363
SWIDTH 585 0
DWIDTH 13 0
BBX 12 19 1 0
BITMAP
7FC0
7FC0
7FC0
E0F0
E0F0
E0F0
E0F0
E0F0
E0F0
E0F0
E0F0
E0F0
E0F0
E0F0
E0F0
F0F0
FFF0
7FE0
7FC0
ENDCHAR
STARTCHAR 016E
ENCODING 366
SWIDTH 585 0
DWIDTH 13 0
BBX 12 20 1 0
BITMAP
0600
0A00
0A00
0600
E0F0
E0F0
E0F0
E0F0
E0F0
E0F0
E0F0
E0F0
E0F0
E0F0
E0F0
E0F0
F0F0
FFF0
7FE0
7FC0
ENDCHAR
STARTCHAR 016F
ENCODING 367
SWIDTH 585 0
DWIDTH 13 0
BBX 12 20 1 0
BITMAP
0600
0A00
0A00
0600
E0F0
E0F0
E0F0
E0F0
E0F0
E0F0
E0F0
E0F0
E0F0
E0F0
E0F0
E0F0
F0F0
FFF0
7FE0
7FC0
ENDCHAR
STARTCHAR 0170
ENCODING 368
SWIDTH 585 0
DWIDTH 13 0
BBX 12 20 1 0
BITMAP
0580
0580
0D00
0B00
E0F0
E0F0
E0F0
E0F0
E0F0
E0F0
E0F0
E0F0
E0F0
E0F0
E0F0
E0F0
F0F0
FFF0
7FE0
7FC0
ENDCHAR
STARTCHAR 0171
ENCODING 369
SWIDTH 585 0
DWIDTH 13 0
BBX 12 20 1 0
BITMAP
0580
0580
0D00
0B00
E0F0
E0F0
E0F0
E0F0
E0F0
E0F0
E0F0
E0F0
E0F0
E0F0
E0F0
E0F0
F0F0
FFF0
7FE0
7FC0
ENDCHAR
STARTCHAR 0172
ENCODING 370
SWIDTH 585 0
DWIDTH 13 0
BBX 12 19 1 -3
BITMAP
E0F0
E0F0
E0F0
E0F0
E0F0
E0F0
E0F0
E0F0
E0F0
E0F0
E0F0
E0F0
F0F0
FFF0
7FE0
7FC0
0400
0C00
0F00
ENDCHAR
STARTCHAR 0173
ENCODING 371
SWIDTH 585 0
DWIDTH 13 0
BBX 12 19 1 -3
BITMAP
E0F0
E0F0
E0F0
E0F0
E0F0
E0F0
E0F0
E0F0
E0F0
E0F0
E0F0
E0F0
F0F0
FFF0
7FE0
7FC0
0400
0C00
0F00
ENDCHAR
STARTCHAR 0174
ENCODING 372
SWIDTH 855 0
DWIDTH 19 0
BBX 18 19 1 0
BITMAP
07F000
0FF800
0C0800
E003C0
F003C0
F003C0
F00380
F00380
71E780
71E780
7BE780
7BF700
7BF700
3F7F00
3F3F00
3F3F00
3F3E00
1E3E00
1E3E00
ENDCHAR
STARTCHAR 0175
ENCODING 373
SWIDTH 855 0
DWIDTH 19 0
BBX 18 19 1 0
BITMAP
07F000
0FF800
0C0800
E003C0
F003C0
F003C0
F00380
F00380
71E780
71E780
7BE780
7BF700
7BF700
3F7F00
3F3F00
3F3F00
3F3E00
1E3E00
1E3E00
ENDCHAR
STARTCHAR 0176
ENCODING 374
SWIDTH 450 0
DWIDTH 10 0
BBX 10 19 0 0
BITMAP
3F80
7FC0
40C0
E1C0
F1C0
F1C0
73C0
7B80
3B80
3F00
3F00
1F00
1E00
0E00
0E00
0E00
0E00
0E00
0E00
ENDCHAR
STARTCHAR 0177
ENCODING 375
SWIDTH 450 0
DWIDTH 10 0
BBX 10 19 0 0
BITMAP
3F80
7FC0
40C0
E1C0
F1C0
F1C0
73C0
7B80
3B80
3F00
3F00
1F00
1E00
0E00
0E00
0E00
0E00
0E00
0E00
ENDCHAR
STARTCHAR 0178
ENCODING 376
SWIDTH 450 0
DWIDTH 10 0
BBX 10 18 0 0
BITMAP
3300
3300
E1C0
F1C0
F1C0
73C0
7B80
3B80
3F00
3F00
1F00
1E00
0E00
0E00
0E00
0E00
0E00
0E00
ENDCHAR
STARTCHAR 017B
ENCODING 379
SWIDTH 540 0
DWIDTH 12 0
BBX 11 19 1 0
BITMAP
0E00
0E00
0C00
FF80
FFC0
FFC0
FFC0
07C0
0780
0F80
0F00
1E00
3E00
3C00
7800
7800
FFE0
7FE0
7FE0
ENDCHAR
STARTCHAR 017C
ENCODING 380
SWIDTH 540 0
DWIDTH 12 0
BBX 11 20 1 0
BITMAP
0E00
0E00
0C00
0000
FF80
FFC0
FFC0
FFC0
07C0
0780
0F80
0F00
1E00
3E00
3C00
7800
7800
FFE0
7FE0
7FE0
ENDCHAR
STARTCHAR 017D
ENCODING 381
SWIDTH 540 0
DWIDTH 12 0
BBX 11 19 1 0
BITMAP
3100
1F00
0E00
FF80
FFC0
FFC0
FFC0
07C0
0780
0F80
0F00
1E00
3E00
3C00
7800
7800
FFE0
7FE0
7FE0
ENDCHAR
STARTCHAR 017E
ENCODING 382
SWIDTH 540 0
DWIDTH 12 0
BBX 11 19 1 0
BITMAP
3100
1F00
0E00
FF80
FFC0
FFC0
FFC0
07C0
0780
0F80
0F00
1E00
3E00
3C00
7800
7800
FFE0
7FE0
7FE0
ENDCHAR
STARTCHAR 01A0
ENCODING 416
SWIDTH 585 0
DWIDTH 13 0
BBX 13 17 1 0
BITMAP
0018
3FF8
7FF0
FFF0
FFF0
E0F0
E0F0
E0F0
E0F0
E0F0
E0F0
E0F0
E0F0
F0F0
FFF0
7FE0
7FC0
ENDCHAR
STARTCHAR 01A1
ENCODING 417
SWIDTH 585 0
DWIDTH 13 0
BBX 13 17 1 0
BITMAP
0018
3FF8
7FF0
FFF0
FFF0
E0F0
E0F0
E0F0
E0F0
E0F0
E0F0
E0F0
E0F0
F0F0
FFF0
7FE0
7FC0
ENDCHAR
STARTCHAR 01AF
ENCODING 431
SWIDTH 585 0
DWIDTH 13 0
BBX 13 17 1 0
BITMAP
0018
E0F8
E0F0
E0E0
E0F0
E0F0
E0F0
E0F0
E0F0
E0F0
E0F0
E0F0
E0F0
F0F0
FFF0
7FE0
7FC0
ENDCHAR
STARTCHAR 01B0
ENCODING 432
SWIDTH 585 0
DWIDTH 13 0
BBX 13 17 1 0
BITMAP
0018
E0F8
E0F0
E0E0
E0F0
E0F0
E0F0
E0F0
E0F0
E0F0
E0F0
E0F0
E0F0
F0F0
FFF0
7FE0
7FC0
ENDCHAR
STARTCHAR 0218
ENCODING 536
SWIDTH 540 0
DWIDTH 12 0
BBX 10 20 1 -4
BITMAP
FF00
FF80
FFC0
FFC0
F1C0
F800
7C00
3E00
1F00
0F80
07C0
03C0
E1C0
FFC0
7FC0
7FC0
0400
0400
0400
0800
ENDCHAR
STARTCHAR 0219
ENCODING 537
SWIDTH 540 0
DWIDTH 12 0
BBX 10 20 1 -4
BITMAP
FF00
FF80
FFC0
FFC0
F1C0
F800
7C00
3E00
1F00
0F80
07C0
03C0
E1C0
FFC0
7FC0
7FC0
0400
0400
0400
0800
ENDCHAR
STARTCHAR 021A
ENCODING 538
SWIDTH 495 0
DWIDTH 11 0
BBX 12 20 0 -4
BITMAP
3FC0
7FE0
FFE0
FFF0
CF70
0F00
0F00
0F00
0F00
0F00
0F00
0F00
0F00
0F00
0F00
0F00
0400
0600
0400
0C00
ENDCHAR
STARTCHAR 021B
ENCODING 539
SWIDTH 495 0
DWIDTH 11 0
BBX 12 20 0 -4
BITMAP
3FC0
7FE0
FFE0
FFF0
CF70
0F00
0F00
0F00
0F00
0F00
0F00
0F00
0F00
0F00
0F00
0F00
0400
0600
0400
0C00
ENDCHAR
STARTCHAR 0259
ENCODING 601
SWIDTH 540 0
DWIDTH 12 0
BBX 10 16 1 0
BITMAP
3FC0
7FC0
FFC0
FFC0
E1C0
01C0
01C0
F9C0
F9C0
F9C0
F9C0
E1C0
E1C0
FFC0
FFC0
FFC0
ENDCHAR
STARTCHAR 02C6
ENCODING 710
SWIDTH 405 0
DWIDTH 9 0
BBX 10 3 0 16
BITMAP
7F00
FFC0
C0C0
ENDCHAR
STARTCHAR 02C7
ENCODING 711
SWIDTH 270 0
DWIDTH 6 0
BBX 6 3 0 16
BITMAP
C4
7C
38
ENDCHAR
STARTCHAR 02D8
ENCODING 728
SWIDTH 405 0
DWIDTH 9 0
BBX 10 3 0 16
BITMAP
E1C0
7F80
3F00
ENDCHAR
STARTCHAR 02D9
ENCODING 729
SWIDTH 135 0
DWIDTH 3 0
BBX 2 3 1 17
BITMAP
C0
C0
C0
ENDCHAR
STARTCHAR 02DA
ENCODING 730
SWIDTH 180 0
DWIDTH 4 0
BBX 4 4 0 16
BITMAP
60
D0
D0
60
ENDCHAR
STARTCHAR 02DB
ENCODING 731
SWIDTH 180 0
DWIDTH 4 0
BBX 3 3 1 -3
BITMAP
C0
80
E0
ENDCHAR
STARTCHAR 02DC
ENCODING 732
SWIDTH 405 0
DWIDTH 9 0
BBX 10 3 0 16
BITMAP
3CC0
EFC0
8100
ENDCHAR
STARTCHAR 02DD
ENCODING 733
SWIDTH 225 0
DWIDTH 5 0
BBX 5 4 0 16
BITMAP
28
68
58
D0
ENDCHAR
STARTCHAR 1E20
ENCODING 7712
SWIDTH 540 0
DWIDTH 12 0
BBX 10 19 1 0
BITMAP
FF80
FF80
FF80
FF80
FF80
FFC0
FFC0
E1C0
E000
E000
E7C0
E7C0
E7C0
E7C0
E1C0
E1C0
FFC0
FFC0
FFC0
ENDCHAR
STARTCHAR 1E3E
ENCODING 7742
SWIDTH 675 0
DWIDTH 15 0
BBX 14 19 1 0
BITMAP
01E0
1FC0
1800
38F0
7CF8
FCF8
FCFC
FDFC
EDFC
EDBC
EDBC
EFBC
E7BC
E7BC
E7BC
E03C
E03C
E03C
E03C
ENDCHAR
STARTCHAR 1E3F
ENCODING 7743
SWIDTH 675 0
DWIDTH 15 0
BBX 14 19 1 0
BITMAP
01E0
1FC0
1800
38F0
7CF8
FCF8
FCFC
FDFC
EDFC
EDBC
EDBC
EFBC
E7BC
E7BC
E7BC
E03C
E03C
E03C
E03C
ENDCHAR
STARTCHAR 1E44
ENCODING 7748
SWIDTH 540 0
DWIDTH 12 0
BBX 11 19 1 0
BITMAP
0E00
0E00
0C00
21E0
71E0
F1E0
F9E0
F9E0
FDE0
FDE0
FFE0
EFE0
EFE0
E7E0
E7E0
E3E0
E3E0
E1C0
E180
ENDCHAR
STARTCHAR 1E45
ENCODING 7749
SWIDTH 540 0
DWIDTH 12 0
BBX 11 19 1 0
BITMAP
0E00
0E00
0C00
21E0
71E0
F1E0
F9E0
F9E0
FDE0
FDE0
FFE0
EFE0
EFE0
E7E0
E7E0
E3E0
E3E0
E1C0
E180
ENDCHAR
STARTCHAR 1E80
ENCODING 7808
SWIDTH 855 0
DWIDTH 19 0
BBX 18 19 1 0
BITMAP
060000
07F000
001800
E003C0
F003C0
F003C0
F00380
F00380
71E780
71E780
7BE780
7BF700
7BF700
3F7F00
3F3F00
3F3F00
3F3E00
1E3E00
1E3E00
ENDCHAR
STARTCHAR 1E81
ENCODING 7809
SWIDTH 855 0
DWIDTH 19 0
BBX 18 19 1 0
BITMAP
060000
07F000
001800
E003C0
F003C0
F003C0
F00380
F00380
71E780
71E780
7BE780
7BF700
7BF700
3F7F00
3F3F00
3F3F00
3F3E00
1E3E00
1E3E00
ENDCHAR
STARTCHAR 1E82
ENCODING 7810
SWIDTH 855 0
DWIDTH 19 0
BBX 18 19 1 0
BITMAP
007800
07F000
060000
E003C0
F003C0
F003C0
F00380
F00380
71E780
71E780
7BE780
7BF700
7BF700
3F7F00
3F3F00
3F3F00
3F3E00
1E3E00
1E3E00
ENDCHAR
STARTCHAR 1E83
ENCODING 7811
SWIDTH 855 0
DWIDTH 19 0
BBX 18 19 1 0
BITMAP
007800
07F000
060000
E003C0
F003C0
F003C0
F00380
F00380
71E780
71E780
7BE780
7BF700
7BF700
3F7F00
3F3F00
3F3F00
3F3E00
1E3E00
1E3E00
ENDCHAR
STARTCHAR 1E84
ENCODING 7812
SWIDTH 855 0
DWIDTH 19 0
BBX 18 18 1 0
BITMAP
033000
033000
E003C0
F003C0
F003C0
F00380
F00380
71E780
71E780
7BE780
7BF700
7BF700
3F7F00
3F3F00
3F3F00
3F3E00
1E3E00
1E3E00
ENDCHAR
STARTCHAR 1E85
ENCODING 7813
SWIDTH 855 0
DWIDTH 19 0
BBX 18 18 1 0
BITMAP
033000
033000
E003C0
F003C0
F003C0
F00380
F00380
71E780
71E780
7BE780
7BF700
7BF700
3F7F00
3F3F00
3F3F00
3F3E00
1E3E00
1E3E00
ENDCHAR
STARTCHAR 1EA0
ENCODING 7840
SWIDTH 585 0
DWIDTH 13 0
BBX 13 18 0 -2
BITMAP
0F80
1FC0
1FC0
1FC0
18C0
38E0
38E0
38E0
38E0
38E0
7FF0
7FF0
7770
7070
7070
F078
0000
0700
ENDCHAR
STARTCHAR 1EA1
ENCODING 7841
SWIDTH 585 0
DWIDTH 13 0
BBX 13 18 0 -2
BITMAP
0F80
1FC0
1FC0
1FC0
18C0
38E0
38E0
38E0
38E0
38E0
7FF0
7FF0
7770
7070
7070
F078
0000
0700
ENDCHAR
STARTCHAR 1EA2
ENCODING 7842
SWIDTH 585 0
DWIDTH 13 0
BBX 13 20 0 0
BITMAP
0700
0D00
0300
0200
0F80
1FC0
1FC0
1FC0
18C0
38E0
38E0
38E0
38E0
38E0
7FF0
7FF0
7770
7070
7070
F078
ENDCHAR
STARTCHAR 1EA3
ENCODING 7843
SWIDTH 585 0
DWIDTH 13 0
BBX 13 20 0 0
BITMAP
0700
0D00
0300
0200
0F80
1FC0
1FC0
1FC0
18C0
38E0
38E0
38E0
38E0
38E0
7FF0
7FF0
7770
7070
7070
F078
ENDCHAR
STARTCHAR 1EA4
ENCODING 7844
SWIDTH 585 0
DWIDTH 13 0
BBX 13 22 0 0
BITMAP
1FC0
3C00
0000
1FC0
3FE0
3060
0F80
1FC0
1FC0
1FC0
18C0
38E0
38E0
38E0
38E0
38E0
7FF0
7FF0
7770
7070
7070
F078
ENDCHAR
STARTCHAR 1EA5
ENCODING 7845
SWIDTH 585 0
DWIDTH 13 0
BBX 13 22 0 0
BITMAP
1FC0
3C00
0000
1FC0
3FE0
3060
0F80
1FC0
1FC0
1FC0
18C0
38E0
38E0
38E0
38E0
38E0
7FF0
7FF0
7770
7070
7070
F078
ENDCHAR
STARTCHAR 1EA6
ENCODING 7846
SWIDTH 585 0
DWIDTH 13 0
BBX 13 22 0 0
BITMAP
3F00
0FC0
0000
1FC0
3FE0
3060
0F80
1FC0
1FC0
1FC0
18C0
38E0
38E0
38E0
38E0
38E0
7FF0
7FF0
7770
7070
7070
F078
ENDCHAR
STARTCHAR 1EA7
ENCODING 7847
SWIDTH 585 0
DWIDTH 13 0
BBX 13 22 0 0
BITMAP
3F00
0FC0
0000
1FC0
3FE0
3060
0F80
1FC0
1FC0
1FC0
18C0
38E0
38E0
38E0
38E0
38E0
7FF0
7FF0
7770
7070
7070
F078
ENDCHAR
STARTCHAR 1EA8
ENCODING 7848
SWIDTH 585 0
DWIDTH 13 0
BBX 13 24 0 0
BITMAP
0700
0F80
0300
0200
0000
1FC0
3FE0
3060
0F80
1FC0
1FC0
1FC0
18C0
38E0
38E0
38E0
38E0
38E0
7FF0
7FF0
7770
7070
7070
F078
ENDCHAR
STARTCHAR 1EA9
ENCODING 7849
SWIDTH 585 0
DWIDTH 13 0
BBX 13 24 0 0
BITMAP
0700
0F80
0300
0200
0000
1FC0
3FE0
3060
0F80
1FC0
1FC0
1FC0
18C0
38E0
38E0
38E0
38E0
38E0
7FF0
7FF0
7770
7070
7070
F078
ENDCHAR
STARTCHAR 1EAA
ENCODING 7850
SWIDTH 585 0
DWIDTH 13 0
BBX 13 23 0 0
BITMAP
0E00
3FE0
21C0
0000
1FC0
3FE0
3060
0F80
1FC0
1FC0
1FC0
18C0
38E0
38E0
38E0
38E0
38E0
7FF0
7FF0
7770
7070
7070
F078
ENDCHAR
STARTCHAR 1EAB
ENCODING 7851
SWIDTH 585 0
DWIDTH 13 0
BBX 13 23 0 0
BITMAP
0E00
3FE0
21C0
0000
1FC0
3FE0
3060
0F80
1FC0
1FC0
1FC0
18C0
38E0
38E0
38E0
38E0
38E0
7FF0
7FF0
7770
7070
7070
F078
ENDCHAR
STARTCHAR 1EAC
ENCODING 7852
SWIDTH 585 0
DWIDTH 13 0
BBX 13 21 0 -2
BITMAP
1FC0
3FE0
3060
0F80
1FC0
1FC0
1FC0
18C0
38E0
38E0
38E0
38E0
38E0
7FF0
7FF0
7770
7070
7070
F078
0000
0700
ENDCHAR
STARTCHAR 1EAD
ENCODING 7853
SWIDTH 585 0
DWIDTH 13 0
BBX 13 21 0 -2
BITMAP
1FC0
3FE0
3060
0F80
1FC0
1FC0
1FC0
18C0
38E0
38E0
38E0
38E0
38E0
7FF0
7FF0
7770
7070
7070
F078
0000
0700
ENDCHAR
STARTCHAR 1EAE
ENCODING 7854
SWIDTH 585 0
DWIDTH 13 0
BBX 13 22 0 0
BITMAP
1FC0
3C00
0000
3060
3FC0
1F80
0F80
1FC0
1FC0
1FC0
18C0
38E0
38E0
38E0
38E0
38E0
7FF0
7FF0
7770
7070
7070
F078
ENDCHAR
STARTCHAR 1EAF
ENCODING 7855
SWIDTH 585 0
DWIDTH 13 0
BBX 13 22 0 0
BITMAP
1FC0
3C00
0000
3060
3FC0
1F80
0F80
1FC0
1FC0
1FC0
18C0
38E0
38E0
38E0
38E0
38E0
7FF0
7FF0
7770
7070
7070
F078
ENDCHAR
STARTCHAR 1EB0
ENCODING 7856
SWIDTH 585 0
DWIDTH 13 0
BBX 13 22 0 0
BITMAP
3F00
0FC0
0000
3060
3FC0
1F80
0F80
1FC0
1FC0
1FC0
18C0
38E0
38E0
38E0
38E0
38E0
7FF0
7FF0
7770
7070
7070
F078
ENDCHAR
STARTCHAR 1EB1
ENCODING 7857
SWIDTH 585 0
DWIDTH 13 0
BBX 13 22 0 0
BITMAP
3F00
0FC0
0000
3060
3FC0
1F80
0F80
1FC0
1FC0
1FC0
18C0
38E0
38E0
38E0
38E0
38E0
7FF0
7FF0
7770
7070
7070
F078
ENDCHAR
STARTCHAR 1EB2
ENCODING 7858
SWIDTH 585 0
DWIDTH 13 0
BBX 13 23 0 0
BITMAP
0700
0F80
0300
0200
3060
3FC0
1F80
0F80
1FC0
1FC0
1FC0
18C0
38E0
38E0
38E0
38E0
38E0
7FF0
7FF0
7770
7070
7070
F078
ENDCHAR
STARTCHAR 1EB3
ENCODING 7859
SWIDTH 585 0
DWIDTH 13 0
BBX 13 23 0 0
BITMAP
0700
0F80
0300
0200
3060
3FC0
1F80
0F80
1FC0
1FC0
1FC0
18C0
38E0
38E0
38E0
38E0
38E0
7FF0
7FF0
7770
7070
7070
F078
ENDCHAR
STARTCHAR 1EB4
ENCODING 7860
SWIDTH 585 0
DWIDTH 13 0
BBX 13 23 0 0
BITMAP
0E00
3FE0
21C0
0000
3060
3FC0
1F80
0F80
1FC0
1FC0
1FC0
18C0
38E0
38E0
38E0
38E0
38E0
7FF0
7FF0
7770
7070
7070
F078
ENDCHAR
STARTCHAR 1EB5
ENCODING 7861
SWIDTH 585 0
DWIDTH 13 0
BBX 13 23 0 0
BITMAP
0E00
3FE0
21C0
0000
3060
3FC0
1F80
0F80
1FC0
1FC0
1FC0
18C0
38E0
38E0
38E0
38E0
38E0
7FF0
7FF0
7770
7070
7070
F078
ENDCHAR
STARTCHAR 1EB6
ENCODING 7862
SWIDTH 585 0
DWIDTH 13 0
BBX 13 21 0 -2
BITMAP
3060
3FC0
1F80
0F80
1FC0
1FC0
1FC0
18C0
38E0
38E0
38E0
38E0
38E0
7FF0
7FF0
7770
7070
7070
F078
0000
0700
ENDCHAR
STARTCHAR 1EB7
ENCODING 7863
SWIDTH 585 0
DWIDTH 13 0
BBX 13 21 0 -2
BITMAP
3060
3FC0
1F80
0F80
1FC0
1FC0
1FC0
18C0
38E0
38E0
38E0
38E0
38E0
7FF0
7FF0
7770
7070
7070
F078
0000
0700
ENDCHAR
STARTCHAR 1EB8
ENCODING 7864
SWIDTH 540 0
DWIDTH 12 0
BBX 10 18 1 -2
BITMAP
FF00
FF80
FFC0
FFC0
E1C0
E000
E000
FF00
FF00
FF00
E000
E000
E1C0
FFC0
FF80
FF80
0000
1E00
ENDCHAR
STARTCHAR 1EB9
ENCODING 7865
SWIDTH 540 0
DWIDTH 12 0
BBX 10 18 1 -2
BITMAP
FF00
FF80
FFC0
FFC0
E1C0
E000
E000
FF00
FF00
FF00
E000
E000
E1C0
FFC0
FF80
FF80
0000
1E00
ENDCHAR
STARTCHAR 1EBA
ENCODING 7866
SWIDTH 540 0
DWIDTH 12 0
BBX 10 20 1 0
BITMAP
1C00
3400
0C00
0C00
FF00
FF80
FFC0
FFC0
E1C0
E000
E000
FF00
FF00
FF00
E000
E000
E1C0
FFC0
FF80
FF80
ENDCHAR
STARTCHAR 1EBB
ENCODING 7867
SWIDTH 540 0
DWIDTH 12 0
BBX 10 20 1 0
BITMAP
1C00
3400
0C00
0C00
FF00
FF80
FFC0
FFC0
E1C0
E000
E000
FF00
FF00
FF00
E000
E000
E1C0
FFC0
FF80
FF80
ENDCHAR
STARTCHAR 1EBC
ENCODING 7868
SWIDTH 540 0
DWIDTH 12 0
BBX 10 19 1 0
BITMAP
7C80
CF80
8000
FF00
FF80
FFC0
FFC0
E1C0
E000
E000
FF00
FF00
FF00
E000
E000
E1C0
FFC0
FF80
FF80
ENDCHAR
STARTCHAR 1EBD
ENCODING 7869
SWIDTH 540 0
DWIDTH 12 0
BBX 10 19 1 0
BITMAP
7C80
CF80
8000
FF00
FF80
FFC0
FFC0
E1C0
E000
E000
FF00
FF00
FF00
E000
E000
E1C0
FFC0
FF80
FF80
ENDCHAR
STARTCHAR 1EBE
ENCODING 7870
SWIDTH 540 0
DWIDTH 12 0
BBX 10 22 1 0
BITMAP
7F80
7800
0000
7F00
FF80
C180
FF00
FF80
FFC0
FFC0
E1C0
E000
E000
FF00
FF00
FF00
E000
E000
E1C0
FFC0
FF80
FF80
ENDCHAR
STARTCHAR 1EBF
ENCODING 7871
SWIDTH 540 0
DWIDTH 12 0
BBX 10 22 1 0
BITMAP
7F80
7800
0000
7F00
FF80
C180
FF00
FF80
FFC0
FFC0
E1C0
E000
E000
FF00
FF00
FF00
E000
E000
E1C0
FFC0
FF80
FF80
ENDCHAR
STARTCHAR 1EC0
ENCODING 7872
SWIDTH 540 0
DWIDTH 12 0
BBX 10 22 1 0
BITMAP
7C00
3F80
0000
7F00
FF80
C180
FF00
FF80
FFC0
FFC0
E1C0
E000
E000
FF00
FF00
FF00
E000
E000
E1C0
FFC0
FF80
FF80
ENDCHAR
STARTCHAR 1EC1
ENCODING 7873
SWIDTH 540 0
DWIDTH 12 0
BBX 10 22 1 0
BITMAP
7C00
3F80
0000
7F00
FF80
C180
FF00
FF80
FFC0
FFC0
E1C0
E000
E000
FF00
FF00
FF00
E000
E000
E1C0
FFC0
FF80
FF80
ENDCHAR
STARTCHAR 1EC2
ENCODING 7874
SWIDTH 540 0
DWIDTH 12 0
BBX 10 24 1 0
BITMAP
1C00
3E00
0C00
0C00
0000
7F00
FF80
C180
FF00
FF80
FFC0
FFC0
E1C0
E000
E000
FF00
FF00
FF00
E000
E000
E1C0
FFC0
FF80
FF80
ENDCHAR
STARTCHAR 1EC3
ENCODING 7875
SWIDTH 540 0
DWIDTH 12 0
BBX 10 24 1 0
BITMAP
1C00
3E00
0C00
0C00
0000
7F00
FF80
C180
FF00
FF80
FFC0
FFC0
E1C0
E000
E000
FF00
FF00
FF00
E000
E000
E1C0
FFC0
FF80
FF80
ENDCHAR
STARTCHAR 1EC4
ENCODING 7876
SWIDTH 540 0
DWIDTH 12 0
BBX 10 23 1 0
BITMAP
3800
FF80
8700
0000
7F00
FF80
C180
FF00
FF80
FFC0
FFC0
E1C0
E000
E000
FF00
FF00
FF00
E000
E000
E1C0
FFC0
FF80
FF80
ENDCHAR
STARTCHAR 1EC5
ENCODING 7877
SWIDTH 540 0
DWIDTH 12 0
BBX 10 23 1 0
BITMAP
3800
FF80
8700
0000
7F00
FF80
C180
FF00
FF80
FFC0
FFC0
E1C0
E000
E000
FF00
FF00
FF00
E000
E000
E1C0
FFC0
FF80
FF80
ENDCHAR
STARTCHAR 1EC6
ENCODING 7878
SWIDTH 540 0
DWIDTH 12 0
BBX 10 21 1 -2
BITMAP
7F00
FF80
C180
FF00
FF80
FFC0
FFC0
E1C0
E000
E000
FF00
FF00
FF00
E000
E000
E1C0
FFC0
FF80
FF80
0000
1E00
ENDCHAR
STARTCHAR 1EC7
ENCODING 7879
SWIDTH 540 0
DWIDTH 12 0
BBX 10 21 1 -2
BITMAP
7F00
FF80
C180
FF00
FF80
FFC0
FFC0
E1C0
E000
E000
FF00
FF00
FF00
E000
E000
E1C0
FFC0
FF80
FF80
0000
1E00
ENDCHAR
STARTCHAR 1EC8
ENCODING 7880
SWIDTH 225 0
DWIDTH 5 0
BBX 4 20 0 0
BITMAP
70
D0
30
20
70
70
70
70
70
70
70
70
70
70
70
70
70
70
70
70
ENDCHAR
STARTCHAR 1EC9
ENCODING 7881
SWIDTH 225 0
DWIDTH 5 0
BBX 4 20 0 0
BITMAP
70
D0
30
20
70
70
70
70
70
70
70
70
70
70
70
70
70
70
70
70
ENDCHAR
STARTCHAR 1ECA
ENCODING 7882
SWIDTH 225 0
DWIDTH 5 0
BBX 3 18 1 -2
BITMAP
E0
E0
E0
E0
E0
E0
E0
E0
E0
E0
E0
E0
E0
E0
E0
E0
00
E0
ENDCHAR
STARTCHAR 1ECB
ENCODING 7883
SWIDTH 225 0
DWIDTH 5 0
BBX 3 18 1 -2
BITMAP
E0
E0
E0
E0
E0
E0
E0
E0
E0
E0
E0
E0
E0
E0
E0
E0
00
E0
ENDCHAR
STARTCHAR 1ECC
ENCODING 7884
SWIDTH 585 0
DWIDTH 13 0
BBX 12 18 1 -2
BITMAP
3FC0
7FE0
FFF0
FFF0
E0F0
E0F0
E0F0
E0F0
E0F0
E0F0
E0F0
E0F0
F0F0
FFF0
7FE0
7FC0
0000
0F00
ENDCHAR
STARTCHAR 1ECD
ENCODING 7885
SWIDTH 585 0
DWIDTH 13 0
BBX 12 18 1 -2
BITMAP
3FC0
7FE0
FFF0
FFF0
E0F0
E0F0
E0F0
E0F0
E0F0
E0F0
E0F0
E0F0
F0F0
FFF0
7FE0
7FC0
0000
0F00
ENDCHAR
STARTCHAR 1ECE
ENCODING 7886
SWIDTH 585 0
DWIDTH 13 0
BBX 12 20 1 0
BITMAP
0F00
0900
0200
0200
3FC0
7FE0
FFF0
FFF0
E0F0
E0F0
E0F0
E0F0
E0F0
E0F0
E0F0
E0F0
F0F0
FFF0
7FE0
7FC0
ENDCHAR
STARTCHAR 1ECF
ENCODING 7887
SWIDTH 585 0
DWIDTH 13 0
BBX 12 20 1 0
BITMAP
0F00
0900
0200
0200
3FC0
7FE0
FFF0
FFF0
E0F0
E0F0
E0F0
E0F0
E0F0
E0F0
E0F0
E0F0
F0F0
FFF0
7FE0
7FC0
ENDCHAR
STARTCHAR 1ED0
ENCODING 7888
SWIDTH 585 0
DWIDTH 13 0
BBX 12 22 1 0
BITMAP
3FC0
3C00
0000
3F80
7FC0
6040
3FC0
7FE0
FFF0
FFF0
E0F0
E0F0
E0F0
E0F0
E0F0
E0F0
E0F0
E0F0
F0F0
FFF0
7FE0
7FC0
ENDCHAR
STARTCHAR 1ED1
ENCODING 7889
SWIDTH 585 0
DWIDTH 13 0
BBX 12 22 1 0
BITMAP
3FC0
3C00
0000
3F80
7FC0
6040
3FC0
7FE0
FFF0
FFF0
E0F0
E0F0
E0F0
E0F0
E0F0
E0F0
E0F0
E0F0
F0F0
FFF0
7FE0
7FC0
ENDCHAR
STARTCHAR 1ED2
ENCODING 7890
SWIDTH 585 0
DWIDTH 13 0
BBX 12 22 1 0
BITMAP
3F00
1FC0
0000
3F80
7FC0
6040
3FC0
7FE0
FFF0
FFF0
E0F0
E0F0
E0F0
E0F0
E0F0
E0F0
E0F0
E0F0
F0F0
FFF0
7FE0
7FC0
ENDCHAR
STARTCHAR 1ED3
ENCODING 7891
SWIDTH 585 0
DWIDTH 13 0
BBX 12 22 1 0
BITMAP
3F00
1FC0
0000
3F80
7FC0
6040
3FC0
7FE0
FFF0
FFF0
E0F0
E0F0
E0F0
E0F0
E0F0
E0F0
E0F0
E0F0
F0F0
FFF0
7FE0
7FC0
ENDCHAR
STARTCHAR 1ED4
ENCODING 7892
SWIDTH 585 0
DWIDTH 13 0
BBX 12 24 1 0
BITMAP
0700
0F00
0300
0200
0000
3F80
7FC0
6040
3FC0
7FE0
FFF0
FFF0
E0F0
E0F0
E0F0
E0F0
E0F0
E0F0
E0F0
E0F0
F0F0
FFF0
7FE0
7FC0
ENDCHAR
STARTCHAR 1ED5
ENCODING 7893
SWIDTH 585 0
DWIDTH 13 0
BBX 12 24 1 0
BITMAP
0700
0F00
0300
0200
0000
3F80
7FC0
6040
3FC0
7FE0
FFF0
FFF0
E0F0
E0F0
E0F0
E0F0
E0F0
E0F0
E0F0
E0F0
F0F0
FFF0
7FE0
7FC0
ENDCHAR
STARTCHAR 1ED6
ENCODING 7894
SWIDTH 585 0
DWIDTH 13 0
BBX 12 23 1 0
BITMAP
1C00
7FC0
61C0
0000
3F80
7FC0
6040
3FC0
7FE0
FFF0
FFF0
E0F0
E0F0
E0F0
E0F0
E0F0
E0F0
E0F0
E0F0
F0F0
FFF0
7FE0
7FC0
ENDCHAR
STARTCHAR 1ED7
ENCODING 7895
SWIDTH 585 0
DWIDTH 13 0
BBX 12 23 1 0
BITMAP
1C00
7FC0
61C0
0000
3F80
7FC0
6040
3FC0
7FE0
FFF0
FFF0
E0F0
E0F0
E0F0
E0F0
E0F0
E0F0
E0F0
E0F0
F0F0
FFF0
7FE0
7FC0
ENDCHAR
STARTCHAR 1ED8
ENCODING 7896
SWIDTH 585 0
DWIDTH 13 0
BBX 12 21 1 -2
BITMAP
3F80
7FC0
6040
3FC0
7FE0
FFF0
FFF0
E0F0
E0F0
E0F0
E0F0
E0F0
E0F0
E0F0
E0F0
F0F0
FFF0
7FE0
7FC0
0000
0F00
ENDCHAR
STARTCHAR 1ED9
ENCODING 7897
SWIDTH 585 0
DWIDTH 13 0
BBX 12 21 1 -2
BITMAP
3F80
7FC0
6040
3FC0
7FE0
FFF0
FFF0
E0F0
E0F0
E0F0
E0F0
E0F0
E0F0
E0F0
E0F0
F0F0
FFF0
7FE0
7FC0
0000
0F00
ENDCHAR
STARTCHAR 1EDA
ENCODING 7898
SWIDTH 585 0
DWIDTH 13 0
BBX 13 19 1 0
BITMAP
01C0
3F80
3018
3FF8
7FF0
FFF0
FFF0
E0F0
E0F0
E0F0
E0F0
E0F0
E0F0
E0F0
E0F0
F0F0
FFF0
7FE0
7FC0
ENDCHAR
STARTCHAR 1EDB
ENCODING 7899
SWIDTH 585 0
DWIDTH 13 0
BBX 13 19 1 0
BITMAP
01C0
3F80
3018
3FF8
7FF0
FFF0
FFF0
E0F0
E0F0
E0F0
E0F0
E0F0
E0F0
E0F0
E0F0
F0F0
FFF0
7FE0
7FC0
ENDCHAR
STARTCHAR 1EDC
ENCODING 7900
SWIDTH 585 0
DWIDTH 13 0
BBX 13 19 1 0
BITMAP
7000
7F80
0098
3FF8
7FF0
FFF0
FFF0
E0F0
E0F0
E0F0
E0F0
E0F0
E0F0
E0F0
E0F0
F0F0
FFF0
7FE0
7FC0
ENDCHAR
STARTCHAR 1EDD
ENCODING 7901
SWIDTH 585 0
DWIDTH 13 0
BBX 13 19 1 0
BITMAP
7000
7F80
0098
3FF8
7FF0
FFF0
FFF0
E0F0
E0F0
E0F0
E0F0
E0F0
E0F0
E0F0
E0F0
F0F0
FFF0
7FE0
7FC0
ENDCHAR
STARTCHAR 1EDE
ENCODING 7902
SWIDTH 585 0
DWIDTH 13 0
BBX 13 20 1 0
BITMAP
0F00
0900
0200
0218
3FF8
7FF0
FFF0
FFF0
E0F0
E0F0
E0F0
E0F0
E0F0
E0F0
E0F0
E0F0
F0F0
FFF0
7FE0
7FC0
ENDCHAR
STARTCHAR 1EDF
ENCODING 7903
SWIDTH 585 0
DWIDTH 13 0
BBX 13 20 1 0
BITMAP
0F00
0900
0200
0218
3FF8
7FF0
FFF0
FFF0
E0F0
E0F0
E0F0
E0F0
E0F0
E0F0
E0F0
E0F0
F0F0
FFF0
7FE0
7FC0
ENDCHAR
STARTCHAR 1EE0
ENCODING 7904
SWIDTH 585 0
DWIDTH 13 0
BBX 13 20 1 0
BITMAP
1E40
77C0
4080
0018
3FF8
7FF0
FFF0
FFF0
E0F0
E0F0
E0F0
E0F0
E0F0
E0F0
E0F0
E0F0
F0F0
FFF0
7FE0
7FC0
ENDCHAR
STARTCHAR 1EE1
ENCODING 7905
SWIDTH 585 0
DWIDTH 13 0
BBX 13 20 1 0
BITMAP
1E40
77C0
4080
0018
3FF8
7FF0
FFF0
FFF0
E0F0
E0F0
E0F0
E0F0
E0F0
E0F0
E0F0
E0F0
F0F0
FFF0
7FE0
7FC0
ENDCHAR
STARTCHAR 1EE2
ENCODING 7906
SWIDTH 585 0
DWIDTH 13 0
BBX 13 19 1 -2
BITMAP
0018
3FF8
7FF0
FFF0
FFF0
E0F0
E0F0
E0F0
E0F0
E0F0
E0F0
E0F0
E0F0
F0F0
FFF0
7FE0
7FC0
0000
0F00
ENDCHAR
STARTCHAR 1EE3
ENCODING 7907
SWIDTH 585 0
DWIDTH 13 0
BBX 13 19 1 -2
BITMAP
0018
3FF8
7FF0
FFF0
FFF0
E0F0
E0F0
E0F0
E0F0
E0F0
E0F0
E0F0
E0F0
F0F0
FFF0
7FE0
7FC0
0000
0F00
ENDCHAR
STARTCHAR 1EE4
ENCODING 7908
SWIDTH 585 0
DWIDTH 13 0
BBX 12 18 1 -2
BITMAP
E0F0
E0F0
E0F0
E0F0
E0F0
E0F0
E0F0
E0F0
E0F0
E0F0
E0F0
E0F0
F0F0
FFF0
7FE0
7FC0
0000
0F00
ENDCHAR
STARTCHAR 1EE5
ENCODING 7909
SWIDTH 585 0
DWIDTH 13 0
BBX 12 18 1 -2
BITMAP
E0F0
E0F0
E0F0
E0F0
E0F0
E0F0
E0F0
E0F0
E0F0
E0F0
E0F0
E0F0
F0F0
FFF0
7FE0
7FC0
0000
0F00
ENDCHAR
STARTCHAR 1EE6
ENCODING 7910
SWIDTH 585 0
DWIDTH 13 0
BBX 12 20 1 0
BITMAP
0F00
0B00
0600
0600
E0F0
E0F0
E0F0
E0F0
E0F0
E0F0
E0F0
E0F0
E0F0
E0F0
E0F0
E0F0
F0F0
FFF0
7FE0
7FC0
ENDCHAR
STARTCHAR 1EE7
ENCODING 7911
SWIDTH 585 0
DWIDTH 13 0
BBX 12 20 1 0
BITMAP
0F00
0B00
0600
0600
E0F0
E0F0
E0F0
E0F0
E0F0
E0F0
E0F0
E0F0
E0F0
E0F0
E0F0
E0F0
F0F0
FFF0
7FE0
7FC0
ENDCHAR
STARTCHAR 1EE8
ENCODING 7912
SWIDTH 585 0
DWIDTH 13 0
BBX 13 19 1 0
BITMAP
01C0
3F80
3018
E0F8
E0F0
E0E0
E0F0
E0F0
E0F0
E0F0
E0F0
E0F0
E0F0
E0F0
E0F0
F0F0
FFF0
7FE0
7FC0
ENDCHAR
STARTCHAR 1EE9
ENCODING 7913
SWIDTH 585 0
DWIDTH 13 0
BBX 13 19 1 0
BITMAP
01C0
3F80
3018
E0F8
E0F0
E0E0
E0F0
E0F0
E0F0
E0F0
E0F0
E0F0
E0F0
E0F0
E0F0
F0F0
FFF0
7FE0
7FC0
ENDCHAR
STARTCHAR 1EEA
ENCODING 7914
SWIDTH 585 0
DWIDTH 13 0
BBX 13 19 1 0
BITMAP
7000
7F80
0098
E0F8
E0F0
E0E0
E0F0
E0F0
E0F0
E0F0
E0F0
E0F0
E0F0
E0F0
E0F0
F0F0
FFF0
7FE0
7FC0
ENDCHAR
STARTCHAR 1EEB
ENCODING 7915
SWIDTH 585 0
DWIDTH 13 0
BBX 13 19 1 0
BITMAP
7000
7F80
0098
E0F8
E0F0
E0E0
E0F0
E0F0
E0F0
E0F0
E0F0
E0F0
E0F0
E0F0
E0F0
F0F0
FFF0
7FE0
7FC0
ENDCHAR
STARTCHAR 1EEC
ENCODING 7916
SWIDTH 585 0
DWIDTH 13 0
BBX 13 20 1 0
BITMAP
0F00
0B00
0600
0618
E0F8
E0F0
E0E0
E0F0
E0F0
E0F0
E0F0
E0F0
E0F0
E0F0
E0F0
E0F0
F0F0
FFF0
7FE0
7FC0
ENDCHAR
STARTCHAR 1EED
ENCODING 7917
SWIDTH 585 0
DWIDTH 13 0
BBX 13 20 1 0
BITMAP
0F00
0B00
0600
0618
E0F8
E0F0
E0E0
E0F0
E0F0
E0F0
E0F0
E0F0
E0F0
E0F0
E0F0
E0F0
F0F0
FFF0
7FE0
7FC0
ENDCHAR
STARTCHAR 1EEE
ENCODING 7918
SWIDTH 585 0
DWIDTH 13 0
BBX 13 20 1 0
BITMAP
1E40
77C0
4080
0018
E0F8
E0F0
E0E0
E0F0
E0F0
E0F0
E0F0
E0F0
E0F0
E0F0
E0F0
E0F0
F0F0
FFF0
7FE0
7FC0
ENDCHAR
STARTCHAR 1EEF
ENCODING 7919
SWIDTH 585 0
DWIDTH 13 0
BBX 13 20 1 0
BITMAP
1E40
77C0
4080
0018
E0F8
E0F0
E0E0
E0F0
E0F0
E0F0
E0F0
E0F0
E0F0
E0F0
E0F0
E0F0
F0F0
FFF0
7FE0
7FC0
ENDCHAR
STARTCHAR 1EF0
ENCODING 7920
SWIDTH 585 0
DWIDTH 13 0
BBX 13 19 1 -2
BITMAP
0018
E0F8
E0F0
E0E0
E0F0
E0F0
E0F0
E0F0
E0F0
E0F0
E0F0
E0F0
E0F0
F0F0
FFF0
7FE0
7FC0
0000
0F00
ENDCHAR
STARTCHAR 1EF1
ENCODING 7921
SWIDTH 585 0
DWIDTH 13 0
BBX 13 19 1 -2
BITMAP
0018
E0F8
E0F0
E0E0
E0F0
E0F0
E0F0
E0F0
E0F0
E0F0
E0F0
E0F0
E0F0
F0F0
FFF0
7FE0
7FC0
0000
0F00
ENDCHAR
STARTCHAR 1EF2
ENCODING 7922
SWIDTH 450 0
DWIDTH 10 0
BBX 10 19 0 0
BITMAP
7000
7F80
0080
E1C0
F1C0
F1C0
73C0
7B80
3B80
3F00
3F00
1F00
1E00
0E00
0E00
0E00
0E00
0E00
0E00
ENDCHAR
STARTCHAR 1EF3
ENCODING 7923
SWIDTH 450 0
DWIDTH 10 0
BBX 10 19 0 0
BITMAP
7000
7F80
0080
E1C0
F1C0
F1C0
73C0
7B80
3B80
3F00
3F00
1F00
1E00
0E00
0E00
0E00
0E00
0E00
0E00
ENDCHAR
STARTCHAR 1EF4
ENCODING 7924
SWIDTH 450 0
DWIDTH 10 0
BBX 10 18 0 -2
BITMAP
E1C0
F1C0
F1C0
73C0
7B80
3B80
3F00
3F00
1F00
1E00
0E00
0E00
0E00
0E00
0E00
0E00
0000
0E00
ENDCHAR
STARTCHAR 1EF5
ENCODING 7925
SWIDTH 450 0
DWIDTH 10 0
BBX 10 18 0 -2
BITMAP
E1C0
F1C0
F1C0
73C0
7B80
3B80
3F00
3F00
1F00
1E00
0E00
0E00
0E00
0E00
0E00
0E00
0000
0E00
ENDCHAR
STARTCHAR 1EF6
ENCODING 7926
SWIDTH 450 0
DWIDTH 10 0
BBX 10 20 0 0
BITMAP
1E00
1200
0400
0400
E1C0
F1C0
F1C0
73C0
7B80
3B80
3F00
3F00
1F00
1E00
0E00
0E00
0E00
0E00
0E00
0E00
ENDCHAR
STARTCHAR 1EF7
ENCODING 7927
SWIDTH 450 0
DWIDTH 10 0
BBX 10 20 0 0
BITMAP
1E00
1200
0400
0400
E1C0
F1C0
F1C0
73C0
7B80
3B80
3F00
3F00
1F00
1E00
0E00
0E00
0E00
0E00
0E00
0E00
ENDCHAR
STARTCHAR 1EF8
ENCODING 7928
SWIDTH 450 0
DWIDTH 10 0
BBX 10 20 0 0
BITMAP
1800
7FC0
4380
0000
E1C0
F1C0
F1C0
73C0
7B80
3B80
3F00
3F00
1F00
1E00
0E00
0E00
0E00
0E00
0E00
0E00
ENDCHAR
STARTCHAR 1EF9
ENCODING 7929
SWIDTH 450 0
DWIDTH 10 0
BBX 10 20 0 0
BITMAP
1800
7FC0
4380
0000
E1C0
F1C0
F1C0
73C0
7B80
3B80
3F00
3F00
1F00
1E00
0E00
0E00
0E00
0E00
0E00
0E00
ENDCHAR
STARTCHAR 2013
ENCODING 8211
SWIDTH 495 0
DWIDTH 11 0
BBX 11 3 0 6
BITMAP
FFE0
FFE0
FFE0
ENDCHAR
STARTCHAR 2014
ENCODING 8212
SWIDTH 990 0
DWIDTH 22 0
BBX 22 3 0 6
BITMAP
FFFFFC
FFFFFC
FFFFFC
ENDCHAR
STARTCHAR 2018
ENCODING 8216
SWIDTH 180 0
DWIDTH 4 0
BBX 4 6 0 10
BITMAP
30
70
60
E0
E0
60
ENDCHAR
STARTCHAR 2019
ENCODING 8217
SWIDTH 180 0
DWIDTH 4 0
BBX 4 6 0 10
BITMAP
30
30
30
30
60
E0
ENDCHAR
STARTCHAR 201A
ENCODING 8218
SWIDTH 135 0
DWIDTH 3 0
BBX 3 5 0 -2
BITMAP
60
60
60
E0
C0
ENDCHAR
STARTCHAR 201C
ENCODING 8220
SWIDTH 360 0
DWIDTH 8 0
BBX 8 6 0 10
BITMAP
33
76
6E
EC
EC
6C
ENDCHAR
STARTCHAR 201D
ENCODING 8221
SWIDTH 360 0
DWIDTH 8 0
BBX 8 6 0 10
BITMAP
32
33
33
37
66
EC
ENDCHAR
STARTCHAR 201E
ENCODING 8222
SWIDTH 360 0
DWIDTH 8 0
BBX 7 5 1 -2
BITMAP
66
66
66
EC
DC
ENDCHAR
STARTCHAR 2020
ENCODING 8224
SWIDTH 495 0
DWIDTH 11 0
BBX 11 16 0 0
BITMAP
0600
0600
0600
0600
0600
FFE0
FFE0
0600
0600
0600
0600
0600
0600
0600
0600
0600
ENDCHAR
STARTCHAR 2021
ENCODING 8225
SWIDTH 495 0
DWIDTH 11 0
BBX 11 16 0 0
BITMAP
0600
0600
0600
0600
0600
FFE0
FFE0
0600
0600
FFE0
FFE0
FFE0
0600
0600
0600
0600
ENDCHAR
STARTCHAR 2022
ENCODING 8226
SWIDTH 225 0
DWIDTH 5 0
BBX 5 5 0 6
BITMAP
F8
F8
F8
F8
F8
ENDCHAR
STARTCHAR 2026
ENCODING 8230
SWIDTH 495 0
DWIDTH 11 0
BBX 10 3 1 0
BITMAP
DDC0
DDC0
DDC0
ENDCHAR
STARTCHAR 2030
ENCODING 8240
SWIDTH 855 0
DWIDTH 19 0
BBX 18 16 1 0
BITMAP
F8E000
F8C000
D9C000
D98000
FB8000
FB0000
070000
060000
060000
0C0000
0C0000
1FF7C0
1BF7C0
3B34C0
33F7C0
71F7C0
ENDCHAR
STARTCHAR 2039
ENCODING 8249
SWIDTH 225 0
DWIDTH 5 0
BBX 4 8 1 4
BITMAP
10
70
E0
C0
C0
60
30
10
ENDCHAR
STARTCHAR 203A
ENCODING 8250
SWIDTH 225 0
DWIDTH 5 0
BBX 4 8 1 4
BITMAP
80
E0
70
30
30
E0
C0
80
ENDCHAR
STARTCHAR 2044
ENCODING 8260
SWIDTH 315 0
DWIDTH 7 0
BBX 9 16 0 0
BITMAP
0180
0300
0300
0600
0600
0C00
0C00
1800
1800
3000
3000
6000
6000
6000
C000
C000
ENDCHAR
STARTCHAR 20AB
ENCODING 8363
SWIDTH 450 0
DWIDTH 10 0
BBX 10 16 0 0
BITMAP
7F00
7F80
7FC0
61C0
61C0
61C0
F9C0
F9C0
61C0
61C0
7FC0
7F80
7F80
0000
7FC0
7FC0
ENDCHAR
STARTCHAR 20AC
ENCODING 8364
SWIDTH 585 0
DWIDTH 13 0
BBX 12 16 1 0
BITMAP
7FC0
7FE0
7FE0
7FF0
78F0
7800
FE00
FE00
7800
FE00
FE00
7800
78F0
7FF0
7FE0
7FC0
ENDCHAR
STARTCHAR 2122
ENCODING 8482
SWIDTH 585 0
DWIDTH 13 0
BBX 13 8 0 8
BITMAP
79B0
FFB8
B7B8
33F8
3378
3378
3318
3318
ENDCHAR
STARTCHAR 215B
ENCODING 8539
SWIDTH 630 0
DWIDTH 14 0
BBX 13 16 1 0
BITMAP
20C0
E0C0
E180
A180
2300
2300
2600
2600
0CF0
0DF8
1998
1998
31F8
3198
61F8
60F0
ENDCHAR
STARTCHAR 215C
ENCODING 8540
SWIDTH 675 0
DWIDTH 15 0
BBX 14 16 1 0
BITMAP
F860
F860
18C0
78C0
7980
1980
7B00
FB00
0678
06FC
0CCC
0CCC
0CFC
18CC
18FC
3078
ENDCHAR
STARTCHAR 215D
ENCODING 8541
SWIDTH 675 0
DWIDTH 15 0
BBX 14 16 1 0
BITMAP
F860
F060
C0C0
F8C0
F980
1980
7B00
FB00
0678
06FC
06CC
0CCC
0CFC
18CC
18FC
3078
ENDCHAR
STARTCHAR 215E
ENCODING 8542
SWIDTH 630 0
DWIDTH 14 0
BBX 13 16 1 0
BITMAP
F0C0
F980
1980
3300
3300
3600
6600
6C00
0CF0
0DF8
1998
1998
31F0
3198
61F8
60F0
ENDCHAR
STARTCHAR 2190
ENCODING 8592
SWIDTH 405 0
DWIDTH 9 0
BBX 9 7 0 3
BITMAP
3000
7000
E000
FF80
FF80
7000
3000
ENDCHAR
STARTCHAR 2191
ENCODING 8593
SWIDTH 360 0
DWIDTH 8 0
BBX 8 8 0 3
BITMAP
3C
7E
FF
DB
18
18
18
18
ENDCHAR
STARTCHAR 2192
ENCODING 8594
SWIDTH 405 0
DWIDTH 9 0
BBX 9 7 0 3
BITMAP
0600
0700
0380
FF80
FF80
0300
0600
ENDCHAR
STARTCHAR 2193
ENCODING 8595
SWIDTH 360 0
DWIDTH 8 0
BBX 8 8 0 3
BITMAP
18
18
18
18
DB
FB
7E
3C
ENDCHAR
STARTCHAR 2194
ENCODING 8596
SWIDTH 495 0
DWIDTH 11 0
BBX 11 7 0 3
BITMAP
3180
70C0
E060
FFE0
FFE0
70E0
31C0
ENDCHAR
STARTCHAR 2195
ENCODING 8597
SWIDTH 360 0
DWIDTH 8 0
BBX 8 11 0 3
BITMAP
18
3C
7E
FB
18
18
18
DB
FB
7E
3C
ENDCHAR
STARTCHAR 2196
ENCODING 8598
SWIDTH 360 0
DWIDTH 8 0
BBX 8 7 0 3
BITMAP
3C
7C
F8
7C
6E
67
03
ENDCHAR
STARTCHAR 2197
ENCODING 8599
SWIDTH 360 0
DWIDTH 8 0
BBX 7 7 1 3
BITMAP
3C
3E
1E
3E
76
E6
C0
ENDCHAR
STARTCHAR 2198
ENCODING 8600
SWIDTH 360 0
DWIDTH 8 0
BBX 8 7 0 3
BITMAP
60
F3
3B
1F
0F
1F
3E
ENDCHAR
STARTCHAR 2199
ENCODING 8601
SWIDTH 360 0
DWIDTH 8 0
BBX 7 7 1 3
BITMAP
06
CE
DC
F8
F0
F8
7C
ENDCHAR
STARTCHAR 220F
ENCODING 8719
SWIDTH 495 0
DWIDTH 11 0
BBX 11 16 0 0
BITMAP
FFE0
FFE0
FFE0
3B80
3B80
3B80
3B80
3B80
3B80
3B80
3B80
3B80
3B80
3B80
3B80
3B80
ENDCHAR
STARTCHAR 2211
ENCODING 8721
SWIDTH 405 0
DWIDTH 9 0
BBX 9 16 0 0
BITMAP
FF80
FF80
FF00
6000
7000
3000
3800
1800
1C00
1800
3800
3000
7000
6000
FF80
FF80
ENDCHAR
STARTCHAR 2212
ENCODING 8722
SWIDTH 405 0
DWIDTH 9 0
BBX 9 2 0 7
BITMAP
FF80
FF80
ENDCHAR
STARTCHAR 221A
ENCODING 8730
SWIDTH 495 0
DWIDTH 11 0
BBX 18 20 0 0
BITMAP
007F80
007FC0
006000
006000
006000
006000
006000
00E000
00E000
00C000
00C000
70C000
F8C000
F8C000
19C000
1DC000
0D8000
0D8000
0F8000
078000
ENDCHAR
STARTCHAR 2260
ENCODING 8800
SWIDTH 405 0
DWIDTH 9 0
BBX 9 9 0 3
BITMAP
0600
0E00
FF80
FF80
0C00
FF80
FF80
1800
1800
ENDCHAR
STARTCHAR 2264
ENCODING 8804
SWIDTH 360 0
DWIDTH 8 0
BBX 8 15 0 1
BITMAP
03
0F
1F
7C
F0
E0
F0
7C
3F
0F
03
00
00
FF
FF
ENDCHAR
STARTCHAR 2265
ENCODING 8805
SWIDTH 360 0
DWIDTH 8 0
BBX 8 16 0 0
BITMAP
80
C0
F0
7C
1F
07
03
07
1F
7C
F0
E0
80
00
FF
FF
ENDCHAR
ENDFONT
